<?xml version="1.0" encoding="utf-8"?>
<!-- Generator: Adobe Illustrator 16.0.0, SVG Export Plug-In . SVG Version: 6.00 Build 0)  -->
<!DOCTYPE svg PUBLIC "-//W3C//DTD SVG 1.1//EN" "http://www.w3.org/Graphics/SVG/1.1/DTD/svg11.dtd">
<svg version="1.1" id="Layer_1" xmlns="http://www.w3.org/2000/svg" xmlns:xlink="http://www.w3.org/1999/xlink" x="0px" y="0px"
	 width="31.879px" height="32px" viewBox="0 0 31.879 32" enable-background="new 0 0 31.879 32" xml:space="preserve">
<g>
	<g>
		<path fill="#790000" d="M1.108,15.984c0,7.999,7.221,14.482,15.218,14.482c8.001,0,14.483-6.483,14.483-14.482
			S24.327,1.501,16.326,1.501C8.329,1.501,1.108,7.985,1.108,15.984z"/>
		<linearGradient id="SVGID_1_" gradientUnits="userSpaceOnUse" x1="5.8325" y1="27.2656" x2="16.3784" y2="27.2656">
			<stop  offset="0" style="stop-color:#DDC024"/>
			<stop  offset="0.1334" style="stop-color:#DEC329"/>
			<stop  offset="0.2921" style="stop-color:#E2CA37"/>
			<stop  offset="0.4636" style="stop-color:#E9D64F"/>
			<stop  offset="0.6431" style="stop-color:#F2E771"/>
			<stop  offset="0.7143" style="stop-color:#F6EF80"/>
			<stop  offset="0.7703" style="stop-color:#F3E974"/>
			<stop  offset="0.8711" style="stop-color:#EAD955"/>
			<stop  offset="1" style="stop-color:#DDC024"/>
		</linearGradient>
		<path fill="url(#SVGID_1_)" d="M5.833,24.324c0,0,3.478-0.338,5.758,3.006c0,0,1.938,2.889,3.248,3.228l1.54,0.172
			C16.378,30.729,13.072,21.549,5.833,24.324z"/>
		<linearGradient id="SVGID_2_" gradientUnits="userSpaceOnUse" x1="6.3423" y1="25.2383" x2="18.5962" y2="25.2383">
			<stop  offset="0.2418" style="stop-color:#DDC024"/>
			<stop  offset="0.33" style="stop-color:#DEC329"/>
			<stop  offset="0.435" style="stop-color:#E2CA37"/>
			<stop  offset="0.5484" style="stop-color:#E9D64F"/>
			<stop  offset="0.6672" style="stop-color:#F2E771"/>
			<stop  offset="0.7143" style="stop-color:#F6EF80"/>
			<stop  offset="0.7703" style="stop-color:#F3E974"/>
			<stop  offset="0.8711" style="stop-color:#EAD955"/>
			<stop  offset="1" style="stop-color:#DDC024"/>
		</linearGradient>
		<path fill="url(#SVGID_2_)" d="M6.342,19.899c0,0,4.478,0.896,6.66,5.316c0,0,2.351,5.092,3.581,5.484l2.013-0.337
			C18.596,30.363,15.521,18.444,6.342,19.899z"/>
		<linearGradient id="SVGID_3_" gradientUnits="userSpaceOnUse" x1="9.8853" y1="20.5752" x2="21.7324" y2="24.8872">
			<stop  offset="0" style="stop-color:#DDC024"/>
			<stop  offset="0.6579" style="stop-color:#EEE164"/>
			<stop  offset="1" style="stop-color:#F6EF80"/>
		</linearGradient>
		<path fill="url(#SVGID_3_)" d="M11.882,15.087c0,0,4.365,2.014,4.813,7.384c0,0-0.056,5.933,1.901,7.892l1.182-0.105
			C19.778,30.258,22.292,15.814,11.882,15.087z"/>
		<linearGradient id="SVGID_4_" gradientUnits="userSpaceOnUse" x1="19.0806" y1="21.1865" x2="24.5034" y2="21.1865">
			<stop  offset="0" style="stop-color:#DDC024"/>
			<stop  offset="0.0821" style="stop-color:#DEC329"/>
			<stop  offset="0.1797" style="stop-color:#E2CA37"/>
			<stop  offset="0.2853" style="stop-color:#E9D64F"/>
			<stop  offset="0.3957" style="stop-color:#F2E771"/>
			<stop  offset="0.4396" style="stop-color:#F6EF80"/>
			<stop  offset="0.4607" style="stop-color:#F5ED7C"/>
			<stop  offset="0.7056" style="stop-color:#E8D54C"/>
			<stop  offset="0.8932" style="stop-color:#E0C62F"/>
			<stop  offset="1" style="stop-color:#DDC024"/>
		</linearGradient>
		<path fill="url(#SVGID_4_)" d="M19.778,30.385c-0.039-0.309-0.47-4.178,1.436-9.368c0,0,1.67-4.201-2.133-9.028
			c0,0,4.144,1.141,5.147,5.651c0,0,1.363,4.289-1.972,10.135l0.334-0.016l-0.516,1.51L19.778,30.385z"/>
		<linearGradient id="SVGID_5_" gradientUnits="userSpaceOnUse" x1="21.6685" y1="21.5576" x2="28.6401" y2="21.5576">
			<stop  offset="0" style="stop-color:#DDC024"/>
			<stop  offset="0.3626" style="stop-color:#F6EF80"/>
			<stop  offset="1" style="stop-color:#DDC024"/>
		</linearGradient>
		<path fill="url(#SVGID_5_)" d="M21.798,29.748c0,0,0.425-3.629,3.408-7.94c0,0,2.434-3.317,0.187-8.44
			c0,0,3.389,1.953,3.242,6.156c0,0,0.221,4.089-4.053,8.475l-2.914,1.732L21.798,29.748z"/>
		<linearGradient id="SVGID_6_" gradientUnits="userSpaceOnUse" x1="-0.0532" y1="15.9839" x2="31.9702" y2="15.9839">
			<stop  offset="0" style="stop-color:#DEB804"/>
			<stop  offset="0.1209" style="stop-color:#F6EF80"/>
			<stop  offset="0.15" style="stop-color:#F2E76E"/>
			<stop  offset="0.2113" style="stop-color:#ECD94D"/>
			<stop  offset="0.2776" style="stop-color:#E7CD32"/>
			<stop  offset="0.3498" style="stop-color:#E3C31E"/>
			<stop  offset="0.4307" style="stop-color:#E0BD0F"/>
			<stop  offset="0.5273" style="stop-color:#DFB907"/>
			<stop  offset="0.6813" style="stop-color:#DEB804"/>
			<stop  offset="0.8352" style="stop-color:#F5EF81"/>
			<stop  offset="1" style="stop-color:#DEB804"/>
		</linearGradient>
		<path fill="url(#SVGID_6_)" d="M16.326,0.34c8.643,0,15.645,7.004,15.645,15.645c0,8.641-7.002,15.644-15.645,15.644
			c-8.64,0-16.379-7.003-16.379-15.644C-0.053,7.344,7.686,0.34,16.326,0.34z M1.108,15.984c0,7.999,7.221,14.482,15.218,14.482
			c8.001,0,14.483-6.483,14.483-14.482S24.327,1.501,16.326,1.501C8.329,1.501,1.108,7.985,1.108,15.984z"/>
		<g>
			<path fill="#AEB0B3" d="M5.945,10.341c0,0.394,0.029,0.793,0.093,1.18c0.048,0.291,0.085,0.597,0.21,0.866
				c0.137,0.298,0.955,1.418,0.097,1.418c0,0-0.999-0.599-1.599-0.066c0,0,2.264,0.999,2.264,1.599c0,0-0.464,0.731-0.265,1.199
				l0.241-0.243l0.188-0.304l0.053,0.546c0.1-0.171,0.223-0.332,0.358-0.472c0.185-0.194,0.43-0.316,0.671-0.434
				c0.452-0.224,0.735-0.451,0.887-1.092c0.063-0.268,0.231-0.254,0.446-0.28c0.15-0.017,0.462-0.146,0.6-0.087
				c-0.004-0.002-0.364-0.156-0.364-0.156c-0.104-0.286-0.571-0.416-0.571-0.416c-0.468-0.104-0.421,0.426-0.421,0.426
				c-0.008,0.015-0.016,0.029-0.023,0.046c0,0-0.601,0.133-0.601-0.332c0-0.55-0.205-1.146-0.523-1.592
				c-0.273-0.381-0.69-0.603-1.02-0.93c-0.13-0.127-0.251-0.262-0.364-0.403C6.229,10.725,5.945,10.453,5.945,10.341z"/>
			<path fill="#AEB0B3" d="M9.387,4.976c0,0.28,0.021,0.565,0.065,0.844c0.034,0.207,0.062,0.427,0.15,0.619
				c0.099,0.212,0.684,1.014,0.069,1.014c0,0-0.714-0.429-1.142-0.047c0,0,1.619,0.713,1.619,1.142c0,0-0.333,0.525-0.191,0.858
				l0.172-0.173l0.136-0.218l0.037,0.39c0.071-0.121,0.16-0.237,0.257-0.337c0.133-0.139,0.308-0.226,0.48-0.31
				c0.322-0.158,0.526-0.322,0.633-0.779c0.045-0.193,0.167-0.183,0.319-0.201c0.107-0.014,0.33-0.104,0.429-0.063
				c-0.003-0.001-0.261-0.111-0.261-0.111c-0.074-0.205-0.408-0.298-0.408-0.298c-0.334-0.075-0.3,0.305-0.3,0.305
				c-0.006,0.011-0.012,0.021-0.018,0.034c0,0-0.429,0.095-0.429-0.238c0-0.394-0.146-0.82-0.374-1.139
				c-0.196-0.273-0.495-0.431-0.729-0.664C9.81,5.512,9.724,5.414,9.641,5.314C9.589,5.25,9.387,5.055,9.387,4.976z"/>
			<path fill="#AEB0B3" d="M23.807,6.156c0,0-0.791,0-0.91,0.475c0,0-0.75-1.779-1.976-0.358c0,0,1.819,0.238,1.067,1.266
				c0,0-0.237,0.671,0.315,0.316C22.304,7.856,23.412,7.658,23.807,6.156z"/>
			<path fill="#AEB0B3" d="M13.81,9.555c0,0-0.118,0.395,0.356,1.105c0,0,0.079,0.712-1.579-0.474c0,0-0.158,1.186,1.776,2.646
				c0,0-0.631,0.829-0.394,1.027c0,0,0.355,0.039,0.71-0.395c0,0,0.83-0.948,1.107-1.817c0,0-0.197,0-0.831,0.079
				C14.956,11.727,15.114,10.463,13.81,9.555z"/>
			<path fill="#AEB0B3" d="M17.012,5.238c0,0-0.094,0.309,0.275,0.863c0,0,0.061,0.555-1.232-0.371c0,0-0.122,0.926,1.387,2.064
				c0,0-0.494,0.647-0.309,0.801c0,0,0.277,0.031,0.554-0.309c0,0,0.648-0.739,0.862-1.416c0,0-0.152,0-0.646,0.061
				C17.904,6.933,18.027,5.948,17.012,5.238z"/>
		</g>
	</g>
</g>
</svg>
