<svg id="Layer_1" data-name="Layer 1" xmlns="http://www.w3.org/2000/svg" viewBox="0 0 195.9 40.11"><defs><style>.cls-1{fill:#fff;}</style></defs><title>Untitled-3</title><path class="cls-1" d="M3.38,39.32,2.1,43.13H.46L4.64,31H6.56l4.21,12.13H9.07L7.75,39.32Zm4-1.23L6.22,34.6c-.28-.79-.46-1.51-.64-2.22h0c-.18.72-.39,1.46-.62,2.2L3.71,38.09Z" transform="translate(-0.46 -30.35)"/><path class="cls-1" d="M12.77,34.42l1.17,4.43c.26,1,.5,1.87.66,2.77h.06c.2-.88.49-1.82.78-2.75l1.45-4.45h1.35l1.37,4.36c.33,1,.59,2,.79,2.84h.05a27.9,27.9,0,0,1,.68-2.83l1.26-4.37H24l-2.85,8.71H19.67L18.31,39a28.56,28.56,0,0,1-.78-2.86h0a25.07,25.07,0,0,1-.8,2.88l-1.43,4.14H13.8l-2.67-8.71Z" transform="translate(-0.46 -30.35)"/><path class="cls-1" d="M30.41,43.13,30.28,42h-.05a3.34,3.34,0,0,1-2.71,1.29,2.5,2.5,0,0,1-2.7-2.5c0-2.11,1.9-3.26,5.32-3.24v-.18a1.81,1.81,0,0,0-2-2,4.42,4.42,0,0,0-2.31.65l-.36-1a5.62,5.62,0,0,1,2.9-.77c2.71,0,3.37,1.82,3.37,3.57V41a12.06,12.06,0,0,0,.14,2.09Zm-.24-4.44c-1.75,0-3.74.27-3.74,2a1.41,1.41,0,0,0,1.51,1.51,2.19,2.19,0,0,0,2.14-1.46,1.47,1.47,0,0,0,.09-.5Z" transform="translate(-0.46 -30.35)"/><path class="cls-1" d="M34.32,30.35h1.61V43.13H34.32Z" transform="translate(-0.46 -30.35)"/><path class="cls-1" d="M40.42,32a1,1,0,0,1-2,0,1,1,0,0,1,1-1A.94.94,0,0,1,40.42,32ZM38.63,43.13V34.42h1.61v8.71Z" transform="translate(-0.46 -30.35)"/><path class="cls-1" d="M43.53,34.42l1.74,4.9A21.84,21.84,0,0,1,46,41.55H46c.2-.72.45-1.44.74-2.23l1.72-4.9h1.68l-3.47,8.71H45.18l-3.37-8.71Z" transform="translate(-0.46 -30.35)"/><path class="cls-1" d="M57.22,31V43.13H55.63V31Z" transform="translate(-0.46 -30.35)"/><path class="cls-1" d="M60.12,36.78c0-.9,0-1.64-.07-2.36h1.43l.09,1.44h0a3.27,3.27,0,0,1,2.93-1.64c1.22,0,3.12.72,3.12,3.71v5.2h-1.6v-5c0-1.4-.53-2.57-2-2.57a2.28,2.28,0,0,0-2.16,1.62,2.24,2.24,0,0,0-.11.73v5.24H60.12Z" transform="translate(-0.46 -30.35)"/><path class="cls-1" d="M72.13,31.92v2.5h2.3v1.21h-2.3v4.69c0,1.08.31,1.7,1.21,1.7a3.77,3.77,0,0,0,.93-.11l.07,1.19a4.12,4.12,0,0,1-1.42.21,2.25,2.25,0,0,1-1.74-.66,3.2,3.2,0,0,1-.62-2.27V35.63H69.19V34.42h1.37V32.33Z" transform="translate(-0.46 -30.35)"/><path class="cls-1" d="M77,39.06a2.81,2.81,0,0,0,3,3,5.93,5.93,0,0,0,2.45-.45l.28,1.13a7.17,7.17,0,0,1-3,.54,4.07,4.07,0,0,1-4.35-4.39c0-2.63,1.57-4.7,4.15-4.7,2.89,0,3.66,2.5,3.66,4.11a5.28,5.28,0,0,1-.06.73Zm4.71-1.13a2.27,2.27,0,0,0-2.23-2.58,2.64,2.64,0,0,0-2.46,2.58Z" transform="translate(-0.46 -30.35)"/><path class="cls-1" d="M85.29,37.14c0-1,0-1.91-.08-2.72h1.41l.06,1.71h.07a2.65,2.65,0,0,1,2.45-1.91,2.16,2.16,0,0,1,.46.05v1.5a2.29,2.29,0,0,0-.55-.05,2.23,2.23,0,0,0-2.16,2,4.14,4.14,0,0,0-.07.74v4.64H85.29Z" transform="translate(-0.46 -30.35)"/><path class="cls-1" d="M91.34,36.78c0-.9,0-1.64-.08-2.36h1.43l.09,1.44h0a3.26,3.26,0,0,1,2.92-1.64c1.23,0,3.13.72,3.13,3.71v5.2H97.26v-5c0-1.4-.53-2.57-2.05-2.57a2.28,2.28,0,0,0-2.16,1.62,2.24,2.24,0,0,0-.11.73v5.24h-1.6Z" transform="translate(-0.46 -30.35)"/><path class="cls-1" d="M106.38,43.13,106.25,42h0a3.34,3.34,0,0,1-2.71,1.29,2.51,2.51,0,0,1-2.71-2.5c0-2.11,1.91-3.26,5.32-3.24v-.18a1.81,1.81,0,0,0-2-2,4.41,4.41,0,0,0-2.3.65l-.37-1a5.68,5.68,0,0,1,2.91-.77c2.71,0,3.36,1.82,3.36,3.57V41a12,12,0,0,0,.15,2.09Zm-.24-4.44c-1.75,0-3.75.27-3.75,2a1.42,1.42,0,0,0,1.52,1.51,2.21,2.21,0,0,0,2.14-1.46,1.76,1.76,0,0,0,.09-.5Z" transform="translate(-0.46 -30.35)"/><path class="cls-1" d="M112.15,31.92v2.5h2.31v1.21h-2.31v4.69c0,1.08.31,1.7,1.21,1.7a3.77,3.77,0,0,0,.93-.11l.07,1.19a4.12,4.12,0,0,1-1.42.21,2.25,2.25,0,0,1-1.74-.66,3.2,3.2,0,0,1-.62-2.27V35.63h-1.37V34.42h1.37V32.33Z" transform="translate(-0.46 -30.35)"/><path class="cls-1" d="M118.05,32a1,1,0,0,1-2,0,1,1,0,0,1,1-1A.94.94,0,0,1,118.05,32Zm-1.79,11.16V34.42h1.61v8.71Z" transform="translate(-0.46 -30.35)"/><path class="cls-1" d="M128.55,38.7a4.29,4.29,0,0,1-4.41,4.63,4.17,4.17,0,0,1-4.24-4.48,4.29,4.29,0,0,1,4.39-4.63A4.16,4.16,0,0,1,128.55,38.7Zm-7,.09c0,1.91,1.11,3.35,2.68,3.35s2.69-1.42,2.69-3.38c0-1.48-.75-3.35-2.65-3.35S121.53,37.14,121.53,38.79Z" transform="translate(-0.46 -30.35)"/><path class="cls-1" d="M130.57,36.78c0-.9,0-1.64-.07-2.36h1.42l.1,1.44h0A3.26,3.26,0,0,1,135,34.22c1.22,0,3.12.72,3.12,3.71v5.2h-1.61v-5c0-1.4-.53-2.57-2-2.57a2.27,2.27,0,0,0-2.16,1.62,2.24,2.24,0,0,0-.11.73v5.24h-1.61Z" transform="translate(-0.46 -30.35)"/><path class="cls-1" d="M145.61,43.13,145.49,42h-.06a3.31,3.31,0,0,1-2.7,1.29,2.5,2.5,0,0,1-2.71-2.5c0-2.11,1.9-3.26,5.32-3.24v-.18a1.81,1.81,0,0,0-2-2A4.41,4.41,0,0,0,141,36l-.37-1a5.63,5.63,0,0,1,2.91-.77c2.7,0,3.36,1.82,3.36,3.57V41a12,12,0,0,0,.15,2.09Zm-.23-4.44c-1.76,0-3.75.27-3.75,2a1.41,1.41,0,0,0,1.52,1.51,2.18,2.18,0,0,0,2.13-1.46,1.48,1.48,0,0,0,.1-.5Z" transform="translate(-0.46 -30.35)"/><path class="cls-1" d="M149.52,30.35h1.61V43.13h-1.61Z" transform="translate(-0.46 -30.35)"/><path class="cls-1" d="M159.35,31v5.08h6V31h1.61V43.13h-1.61V37.44h-6v5.69h-1.59V31Z" transform="translate(-0.46 -30.35)"/><path class="cls-1" d="M177.63,38.7a4.29,4.29,0,0,1-4.4,4.63A4.18,4.18,0,0,1,169,38.85a4.29,4.29,0,0,1,4.39-4.63A4.16,4.16,0,0,1,177.63,38.7Zm-7,.09c0,1.91,1.12,3.35,2.69,3.35S176,40.72,176,38.76c0-1.48-.75-3.35-2.66-3.35S170.61,37.14,170.61,38.79Z" transform="translate(-0.46 -30.35)"/><path class="cls-1" d="M181.6,31.92v2.5h2.3v1.21h-2.3v4.69c0,1.08.31,1.7,1.2,1.7a3.77,3.77,0,0,0,.93-.11l.08,1.19a4.19,4.19,0,0,1-1.43.21,2.27,2.27,0,0,1-1.74-.66,3.25,3.25,0,0,1-.62-2.27V35.63h-1.37V34.42H180V32.33Z" transform="translate(-0.46 -30.35)"/><path class="cls-1" d="M186.49,39.06a2.82,2.82,0,0,0,3,3,6,6,0,0,0,2.45-.45l.27,1.13a7.11,7.11,0,0,1-2.94.54A4.07,4.07,0,0,1,185,38.92c0-2.63,1.57-4.7,4.15-4.7,2.89,0,3.65,2.5,3.65,4.11a5.63,5.63,0,0,1,0,.73Zm4.72-1.13A2.27,2.27,0,0,0,189,35.35a2.65,2.65,0,0,0-2.47,2.58Z" transform="translate(-0.46 -30.35)"/><path class="cls-1" d="M194.75,30.35h1.61V43.13h-1.61Z" transform="translate(-0.46 -30.35)"/><path class="cls-1" d="M15.38,55.67c0,.57.55,1.26,1.53,2-.34.15-.79.33-1.24.48.07,1,.22,2.05.22,3a2.81,2.81,0,0,1-1.22,2.5c2.22.24,2.62.56,2.62,1.3,0,.3-.21.68-.78,1.19A20.49,20.49,0,0,1,8,67.94a11.82,11.82,0,0,1-4.5-.82c-1.28-.64-2-1.42-2-2.36A4.22,4.22,0,0,1,3,62l.74.13A3.25,3.25,0,0,0,2.88,64,2.05,2.05,0,0,0,4,65.71a8.6,8.6,0,0,0,4.3,1,20.08,20.08,0,0,0,5.42-.66,11.67,11.67,0,0,0,2.39-.87c0-.33-3.14-.63-5.93-.73L10,64.37l.9-.91a8.45,8.45,0,0,0,3.39-.64,7.71,7.71,0,0,0,0-1,28.88,28.88,0,0,0-.49-4.06,6.56,6.56,0,0,1-.21-1.1c0-.19.19-.4.57-.59a7.87,7.87,0,0,1,1-.48ZM7.44,70.46c-.77-.35-1.45-.63-2.21-.92a12.5,12.5,0,0,1,1.49-.83,19.44,19.44,0,0,1,2.15.94A9.06,9.06,0,0,1,7.44,70.46Zm3.63-.12c-.77-.34-1.45-.62-2.2-.91a14.22,14.22,0,0,1,1.49-.84,18.51,18.51,0,0,1,2.14.94A8.25,8.25,0,0,1,11.07,70.34Z" transform="translate(-0.46 -30.35)"/><path class="cls-1" d="M26.77,63.75c-2.2,0-4.1-.48-4.1-1.65,0-.58.47-1.08,1.2-1.52a6.26,6.26,0,0,1,2.69-.72,4.38,4.38,0,0,1,2.85,1,3.19,3.19,0,0,1,1.2,2.42,2.87,2.87,0,0,1-1.43,2.31,8.23,8.23,0,0,1-4.84,1.67,17.91,17.91,0,0,1-5.4-.86l.28-.29a11.7,11.7,0,0,0,2.75.3,12,12,0,0,0,5.54-1.34c.84-.43,1.63-1,1.77-1.47A18.79,18.79,0,0,1,26.77,63.75ZM25.94,61c-.88,0-2.11.46-2.11.79,0,.54,1.66.93,3.21.93a18.44,18.44,0,0,0,2.12-.12A3.54,3.54,0,0,0,25.94,61Z" transform="translate(-0.46 -30.35)"/><path class="cls-1" d="M46.56,64.67H46.2c-1.69,0-3.11-.33-3.84-1.43h-.1c-.15.33-.54.61-1.35.84a14.06,14.06,0,0,1-3.79.59c-2.1,0-3.27-.6-3.27-1.62a4.74,4.74,0,0,1,0-.65l.74,0c.07.73.85,1.18,2.65,1.18a13.14,13.14,0,0,0,3.07-.44c.7-.19,1.23-.45,1.23-.66A10.06,10.06,0,0,0,40,59.18c.44-.31.85-.63,1.34-.91l.11,0a33.31,33.31,0,0,1,1.79,3.91c.34.87,1.57,1.33,3,1.33h.32Z" transform="translate(-0.46 -30.35)"/><path class="cls-1" d="M47,63.55a8.57,8.57,0,0,0,2.11-.24c.66-.18,1-.49,1-1a30.18,30.18,0,0,0-.55-4.56,6.36,6.36,0,0,1-.19-1.1c0-.19.19-.4.57-.59a7.87,7.87,0,0,1,1-.48l.13,0c0,.57.55,1.26,1.53,2-.34.15-.74.3-1.19.45.08,1,.25,2.08.25,3a2.88,2.88,0,0,1-.76,2.21,2.92,2.92,0,0,1-1.71,1,11.06,11.06,0,0,1-2.35.26h-.29c-1,0-1.31-.35-1.31-.59s.3-.53,1.31-.53Z" transform="translate(-0.46 -30.35)"/><path class="cls-1" d="M55.85,64.82a5.48,5.48,0,0,0,.21-1.76V62.2a31.72,31.72,0,0,0-.68-5.46,16.89,16.89,0,0,1,1.85-.94l.17,0A32.28,32.28,0,0,1,57.89,62a6.9,6.9,0,0,1-.13,1.45c-.06.48-.57.85-1.66,1.41Z" transform="translate(-0.46 -30.35)"/><path class="cls-1" d="M79.05,65a24,24,0,0,1-6.46-.67c-1.67-.51-2.76-1.31-2.76-2.39a2.76,2.76,0,0,1,1.11-2.12l.75.15a2.42,2.42,0,0,0-.55,1.33c0,.82,1,1.52,2.49,1.94a23.28,23.28,0,0,0,6,.57,62.45,62.45,0,0,0,6.93-.39l-.15-.11A1.48,1.48,0,0,1,85.74,62c0-.67.41-1.43,1.69-2.07a7.7,7.7,0,0,1,2.84-.81,3.56,3.56,0,0,1,2.21,1,1.77,1.77,0,0,1,.71,1.25,2.72,2.72,0,0,1-1.26,2,22,22,0,0,0,2.94.16h.6v1.12h-.54a31,31,0,0,1-5.63-.47A68,68,0,0,1,79.05,65Zm9-6.57c-.78-.34-1.46-.63-2.21-.92a16.12,16.12,0,0,1,1.49-.83,19.44,19.44,0,0,1,2.15.94A9.06,9.06,0,0,1,88,58.46ZM92.16,62a1.24,1.24,0,0,0-.45-.79,2.67,2.67,0,0,0-1.87-.79,4.09,4.09,0,0,0-3.24,1.47c.27.51,1.08,1,2.7,1.22C90.59,63,92.16,62.36,92.16,62ZM89,56.59c-.77-.35-1.45-.63-2.2-.92a16.12,16.12,0,0,1,1.49-.83,18.51,18.51,0,0,1,2.14.94A8.25,8.25,0,0,1,89,56.59Zm2.62,1.75c-.77-.34-1.45-.62-2.2-.91a14.12,14.12,0,0,1,1.48-.84,19.74,19.74,0,0,1,2.15.95A7.9,7.9,0,0,1,91.65,58.34Z" transform="translate(-0.46 -30.35)"/><path class="cls-1" d="M95.88,63.55c1.45,0,3-.28,3.24-.78l.54-1,1.3-.44.12.07a2.47,2.47,0,0,0-.42,1c0,.3.17.56.62.73a6.75,6.75,0,0,0,2.34.35H104v1.12h-.44c-1.84,0-3.23-.24-3.87-.89h-.08a6.26,6.26,0,0,1-3.75.89h-.35c-1,0-1.32-.35-1.32-.59s.3-.53,1.32-.53ZM98,68.18c-.77-.34-1.45-.63-2.21-.92a16.12,16.12,0,0,1,1.49-.83,19.44,19.44,0,0,1,2.15.94A9.06,9.06,0,0,1,98,68.18Zm3.63-.12c-.77-.34-1.45-.62-2.2-.91a12.5,12.5,0,0,1,1.49-.83,18.51,18.51,0,0,1,2.14.94A7.9,7.9,0,0,1,101.64,68.06Z" transform="translate(-0.46 -30.35)"/><path class="cls-1" d="M104.37,63.55a8.57,8.57,0,0,0,2.11-.24c.66-.18,1-.49,1-1a30.18,30.18,0,0,0-.55-4.56,6.36,6.36,0,0,1-.19-1.1c0-.19.19-.4.57-.59a7.87,7.87,0,0,1,1-.48l.13,0c0,.57.55,1.26,1.53,2-.34.15-.74.3-1.19.45.08,1,.25,2.08.25,3a2.88,2.88,0,0,1-.76,2.21,2.92,2.92,0,0,1-1.71,1,11.06,11.06,0,0,1-2.35.26H104c-1,0-1.32-.35-1.32-.59s.3-.53,1.32-.53Z" transform="translate(-0.46 -30.35)"/><path class="cls-1" d="M113.26,64.82a5.77,5.77,0,0,0,.2-1.76V62.2a32.73,32.73,0,0,0-.67-5.46,15.89,15.89,0,0,1,1.84-.94l.17,0a31.49,31.49,0,0,1,.49,6.19,6.9,6.9,0,0,1-.13,1.45c-.06.48-.57.85-1.66,1.41Z" transform="translate(-0.46 -30.35)"/><path class="cls-1" d="M123.37,63.75c-2.21,0-4.11-.48-4.11-1.65,0-.58.47-1.08,1.21-1.52a6.19,6.19,0,0,1,2.69-.72,4.36,4.36,0,0,1,2.84,1,3.17,3.17,0,0,1,1.21,2.42,2.9,2.9,0,0,1-1.43,2.31,8.28,8.28,0,0,1-4.84,1.67,18,18,0,0,1-5.41-.86l.29-.29a11.62,11.62,0,0,0,2.74.3,12,12,0,0,0,5.54-1.34c.85-.43,1.64-1,1.77-1.47A18.75,18.75,0,0,1,123.37,63.75ZM122.54,61c-.89,0-2.11.46-2.11.79,0,.54,1.66.93,3.2.93a18.61,18.61,0,0,0,2.13-.12A3.54,3.54,0,0,0,122.54,61Z" transform="translate(-0.46 -30.35)"/><path class="cls-1" d="M134.77,54.42a4.66,4.66,0,0,1-.73.6,37.67,37.67,0,0,0-4.9.66l0,0,.45-.36a2.87,2.87,0,0,1,.86-.29v0c-.88-.12-1.46-.39-1.46-.77s.35-.54.88-.77a6,6,0,0,1,2.28-.5c.75,0,1.18.2,1.18.43s-.3.4-.6.57h0a1.18,1.18,0,0,0-.61-.34,4.51,4.51,0,0,0-.58,0c-.66,0-1.32.18-1.32.31,0,.42,1.58.56,2.69.56q1,0,1.92,0Zm-3.5,10.4a5.48,5.48,0,0,0,.21-1.76V62.2a32.73,32.73,0,0,0-.68-5.46,16,16,0,0,1,1.85-.94l.17,0A32.28,32.28,0,0,1,133.3,62a6.29,6.29,0,0,1-.13,1.45c0,.48-.56.85-1.65,1.41Z" transform="translate(-0.46 -30.35)"/><path class="cls-1" d="M158.25,63.2a12.22,12.22,0,0,1-3.42-.38c-1.06-.35-1.32-.8-1.32-1.45a1.6,1.6,0,0,1,.68-1,5,5,0,0,1,3.08-1.07A4.68,4.68,0,0,1,161,61a4.25,4.25,0,0,1,.85,2.14,2.41,2.41,0,0,1-.3,1.25c-.1.29-.77.69-1.39,1a21.21,21.21,0,0,1-7.89,1.48c-3.71,0-7.12-1.18-7.12-3.32A3.53,3.53,0,0,1,146.28,61l.79.1a2.66,2.66,0,0,0-.64,1.45c0,1.85,2.45,3,5.89,3a21.23,21.23,0,0,0,6.05-.84c1.14-.36,2.31-.82,2.31-1.06a.81.81,0,0,0-.26-.51C159.8,63.16,159.06,63.2,158.25,63.2ZM154.64,58c-.77-.34-1.45-.63-2.2-.92a14.8,14.8,0,0,1,1.48-.83,19.44,19.44,0,0,1,2.15.94A8.64,8.64,0,0,1,154.64,58ZM157,60.43c-1.07,0-2.29.39-2.29.82s1.05.81,3.71.81c.67,0,1.22,0,1.69-.05A3.51,3.51,0,0,0,157,60.43Zm1.32-2.53c-.77-.34-1.45-.62-2.2-.91a12.5,12.5,0,0,1,1.49-.83,18.51,18.51,0,0,1,2.14.94A7.58,7.58,0,0,1,158.27,57.9Z" transform="translate(-0.46 -30.35)"/><path class="cls-1" d="M178,64.67h-.36c-1.69,0-3.1-.33-3.84-1.43h-.09c-.15.33-.55.61-1.36.84a14,14,0,0,1-3.78.59c-2.11,0-3.28-.6-3.28-1.62a3.57,3.57,0,0,1,.06-.65l.73,0c.08.73.85,1.18,2.66,1.18a13.22,13.22,0,0,0,3.07-.44c.69-.19,1.22-.45,1.22-.66a10.19,10.19,0,0,0-1.56-3.27,15,15,0,0,1,1.34-.91l.11,0a35,35,0,0,1,1.79,3.91c.34.87,1.56,1.33,3,1.33H178Z" transform="translate(-0.46 -30.35)"/><path class="cls-1" d="M178.39,63.55c1.45,0,3-.28,3.24-.78l.55-1,1.3-.44.11.07a2.56,2.56,0,0,0-.41,1c0,.3.16.56.62.73a6.65,6.65,0,0,0,2.33.35h.34v1.12H186c-1.85,0-3.24-.24-3.88-.89h-.08a6.22,6.22,0,0,1-3.74.89H178c-1,0-1.32-.35-1.32-.59s.3-.53,1.32-.53Zm3.28-5.31a19.25,19.25,0,0,1,2.26.94,6.32,6.32,0,0,1-1.56.86c-.74-.33-1.47-.61-2.23-.91C180.65,58.82,181.16,58.51,181.67,58.24Z" transform="translate(-0.46 -30.35)"/><path class="cls-1" d="M188.05,63.55a32.25,32.25,0,0,0,4.11-.18c1.2-.17,2.22-.5,2.22-.73a.33.33,0,0,0,0-.19c-.68,0-1.45,0-2.13,0-2.18,0-3.86-.27-4.52-.95a.92.92,0,0,1-.28-.63,2.12,2.12,0,0,1,1.41-1.73,5.69,5.69,0,0,1,2.43-.59,4.49,4.49,0,0,1,3.6,1.74,3.23,3.23,0,0,1,.79,2.09,1.53,1.53,0,0,1-.92,1.39c-1.19.63-3.37.87-6.73.87h-1.52c-1,0-1.32-.35-1.32-.59s.3-.53,1.32-.53Zm2.79-3.82c-1.25,0-2.26.45-2.26.78,0,.72,2.48.94,5.46.93A3.63,3.63,0,0,0,190.84,59.73Zm-.4-3.94a18.56,18.56,0,0,1,2.26.94,6.82,6.82,0,0,1-1.56.86c-.74-.33-1.47-.61-2.22-.91C189.42,56.37,189.93,56.06,190.44,55.79Z" transform="translate(-0.46 -30.35)"/></svg>