<?xml version="1.0" encoding="utf-8"?>
<!-- Generator: Adobe Illustrator 16.0.0, SVG Export Plug-In . SVG Version: 6.00 Build 0)  -->
<!DOCTYPE svg PUBLIC "-//W3C//DTD SVG 1.1//EN" "http://www.w3.org/Graphics/SVG/1.1/DTD/svg11.dtd">
<svg version="1.1" id="Layer_1" xmlns="http://www.w3.org/2000/svg" xmlns:xlink="http://www.w3.org/1999/xlink" x="0px" y="0px"
	 width="2120px" height="1376px" viewBox="1758.075 -219.345 2120 1376" enable-background="new 1758.075 -219.345 2120 1376"
	 xml:space="preserve">
<g>
	<g>
		<linearGradient id="SVGID_1_" gradientUnits="userSpaceOnUse" x1="2614.1299" y1="393.5991" x2="2829.75" y2="393.5991">
			<stop  offset="0.2151" style="stop-color:#CB9A2D"/>
			<stop  offset="0.2258" style="stop-color:#CA9B32"/>
			<stop  offset="0.2943" style="stop-color:#C89F49"/>
			<stop  offset="0.3668" style="stop-color:#C6A25B"/>
			<stop  offset="0.4454" style="stop-color:#C4A465"/>
			<stop  offset="0.5413" style="stop-color:#C4A568"/>
			<stop  offset="0.6336" style="stop-color:#C6A25B"/>
			<stop  offset="0.8055" style="stop-color:#CA9C37"/>
			<stop  offset="0.8504" style="stop-color:#CB9A2D"/>
			<stop  offset="0.902" style="stop-color:#B78B2C"/>
			<stop  offset="0.9908" style="stop-color:#98732B"/>
		</linearGradient>
		<path fill="url(#SVGID_1_)" d="M2614.13,333.487c0,0,71.108-6.933,117.712,61.406c0,0,39.639,59.078,66.438,66.033l31.471,3.476
			C2829.75,464.402,2762.152,276.74,2614.13,333.487z"/>
		<linearGradient id="SVGID_2_" gradientUnits="userSpaceOnUse" x1="2624.5757" y1="352.1294" x2="2875.1211" y2="352.1294">
			<stop  offset="0.2151" style="stop-color:#CB9A2D"/>
			<stop  offset="0.2258" style="stop-color:#CA9B32"/>
			<stop  offset="0.2943" style="stop-color:#C89F49"/>
			<stop  offset="0.3668" style="stop-color:#C6A25B"/>
			<stop  offset="0.4454" style="stop-color:#C4A465"/>
			<stop  offset="0.5413" style="stop-color:#C4A568"/>
			<stop  offset="0.6336" style="stop-color:#C6A25B"/>
			<stop  offset="0.8055" style="stop-color:#CA9C37"/>
			<stop  offset="0.8504" style="stop-color:#CB9A2D"/>
			<stop  offset="0.902" style="stop-color:#B78B2C"/>
			<stop  offset="0.9908" style="stop-color:#98732B"/>
		</linearGradient>
		<path fill="url(#SVGID_2_)" d="M2624.576,242.985c0,0,91.532,18.306,136.151,108.685c0,0,48.058,104.114,73.225,112.122
			l41.17-6.868C2875.121,456.923,2812.207,213.242,2624.576,242.985z"/>
		<linearGradient id="SVGID_3_" gradientUnits="userSpaceOnUse" x1="2697.001" y1="256.7896" x2="2939.2058" y2="344.9449">
			<stop  offset="0.2151" style="stop-color:#CB9A2D"/>
			<stop  offset="0.2258" style="stop-color:#CA9B32"/>
			<stop  offset="0.2943" style="stop-color:#C89F49"/>
			<stop  offset="0.3668" style="stop-color:#C6A25B"/>
			<stop  offset="0.4454" style="stop-color:#C4A465"/>
			<stop  offset="0.5413" style="stop-color:#C4A568"/>
			<stop  offset="0.6336" style="stop-color:#C6A25B"/>
			<stop  offset="0.8055" style="stop-color:#CA9C37"/>
			<stop  offset="0.8504" style="stop-color:#CB9A2D"/>
			<stop  offset="0.902" style="stop-color:#B78B2C"/>
			<stop  offset="0.9908" style="stop-color:#98732B"/>
		</linearGradient>
		<path fill="url(#SVGID_3_)" d="M2737.835,144.6c0,0,89.24,41.181,98.392,151.013c0,0-1.144,121.274,38.894,161.311l24.123-2.183
			C2899.244,454.741,2950.633,159.469,2737.835,144.6z"/>
		<linearGradient id="SVGID_4_" gradientUnits="userSpaceOnUse" x1="2884.9624" y1="269.3071" x2="2995.8813" y2="269.3071">
			<stop  offset="0.2151" style="stop-color:#CB9A2D"/>
			<stop  offset="0.2258" style="stop-color:#CA9B32"/>
			<stop  offset="0.2943" style="stop-color:#C89F49"/>
			<stop  offset="0.3668" style="stop-color:#C6A25B"/>
			<stop  offset="0.4454" style="stop-color:#C4A465"/>
			<stop  offset="0.5413" style="stop-color:#C4A568"/>
			<stop  offset="0.6336" style="stop-color:#C6A25B"/>
			<stop  offset="0.8055" style="stop-color:#CA9C37"/>
			<stop  offset="0.8504" style="stop-color:#CB9A2D"/>
			<stop  offset="0.902" style="stop-color:#B78B2C"/>
			<stop  offset="0.9908" style="stop-color:#98732B"/>
		</linearGradient>
		<path fill="url(#SVGID_4_)" d="M2899.244,457.373c-0.795-6.312-9.583-85.465,29.355-191.548c0,0,34.169-85.869-43.637-184.583
			c0,0,84.759,23.337,105.269,115.538c0,0,27.901,87.718-40.3,207.224l6.831-0.332l-10.533,30.891L2899.244,457.373z"/>
		<linearGradient id="SVGID_5_" gradientUnits="userSpaceOnUse" x1="2937.939" y1="276.916" x2="3080.4341" y2="276.916">
			<stop  offset="0.2151" style="stop-color:#CB9A2D"/>
			<stop  offset="0.2258" style="stop-color:#CA9B32"/>
			<stop  offset="0.2943" style="stop-color:#C89F49"/>
			<stop  offset="0.3668" style="stop-color:#C6A25B"/>
			<stop  offset="0.4454" style="stop-color:#C4A465"/>
			<stop  offset="0.5413" style="stop-color:#C4A568"/>
			<stop  offset="0.6336" style="stop-color:#C6A25B"/>
			<stop  offset="0.8055" style="stop-color:#CA9C37"/>
			<stop  offset="0.8504" style="stop-color:#CB9A2D"/>
			<stop  offset="0.902" style="stop-color:#B78B2C"/>
			<stop  offset="0.9908" style="stop-color:#98732B"/>
		</linearGradient>
		<path fill="url(#SVGID_5_)" d="M2940.559,444.368c0,0,8.693-74.209,69.698-162.368c0,0,49.745-67.812,3.776-172.536
			c0,0,69.318,39.925,66.306,125.822c0,0,4.525,83.634-82.864,173.3l-59.536,35.4L2940.559,444.368z"/>
		<linearGradient id="SVGID_6_" gradientUnits="userSpaceOnUse" x1="2493.8018" y1="162.9541" x2="3148.5386" y2="162.9541">
			<stop  offset="0.2151" style="stop-color:#CB9A2D"/>
			<stop  offset="0.2258" style="stop-color:#CA9B32"/>
			<stop  offset="0.2943" style="stop-color:#C89F49"/>
			<stop  offset="0.3668" style="stop-color:#C6A25B"/>
			<stop  offset="0.4454" style="stop-color:#C4A465"/>
			<stop  offset="0.5413" style="stop-color:#C4A568"/>
			<stop  offset="0.6336" style="stop-color:#C6A25B"/>
			<stop  offset="0.8055" style="stop-color:#CA9C37"/>
			<stop  offset="0.8504" style="stop-color:#CB9A2D"/>
			<stop  offset="0.902" style="stop-color:#B78B2C"/>
			<stop  offset="0.9908" style="stop-color:#98732B"/>
		</linearGradient>
		<path fill="url(#SVGID_6_)" d="M2828.692-156.895c176.659,0,319.846,143.204,319.846,319.846s-143.187,319.853-319.846,319.853
			c-176.643,0-334.891-143.211-334.891-319.853S2652.05-156.895,2828.692-156.895z M2517.544,162.951
			c0,163.542,147.611,296.11,311.148,296.11c163.539,0,296.101-132.568,296.101-296.11c0-163.538-132.562-296.102-296.101-296.102
			C2665.155-133.151,2517.544-0.587,2517.544,162.951z"/>
		<g>
			<linearGradient id="SVGID_7_" gradientUnits="userSpaceOnUse" x1="2591.916" y1="110.9077" x2="2703.2075" y2="110.9077">
				<stop  offset="0.2151" style="stop-color:#CB9A2D"/>
				<stop  offset="0.2258" style="stop-color:#CA9B32"/>
				<stop  offset="0.2943" style="stop-color:#C89F49"/>
				<stop  offset="0.3668" style="stop-color:#C6A25B"/>
				<stop  offset="0.4454" style="stop-color:#C4A465"/>
				<stop  offset="0.5413" style="stop-color:#C4A568"/>
				<stop  offset="0.6336" style="stop-color:#C6A25B"/>
				<stop  offset="0.8055" style="stop-color:#CA9C37"/>
				<stop  offset="0.8504" style="stop-color:#CB9A2D"/>
				<stop  offset="0.902" style="stop-color:#B78B2C"/>
				<stop  offset="0.9908" style="stop-color:#98732B"/>
			</linearGradient>
			<path fill="url(#SVGID_7_)" d="M2616.436,47.567c0,8.043,0.603,16.205,1.911,24.132c0.97,5.942,1.732,12.2,4.26,17.703
				c2.806,6.098,19.556,28.995,1.998,28.995c0,0-20.422-12.261-32.689-1.351c0,0,46.309,20.421,46.309,32.682
				c0,0-9.52,14.986-5.436,24.521l4.936-4.945l3.849-6.236l1.072,11.137c2.043-3.445,4.556-6.759,7.332-9.645
				c3.789-3.946,8.801-6.436,13.722-8.86c9.227-4.54,15.03-9.219,18.116-22.311c1.307-5.501,4.746-5.207,9.139-5.744
				c3.085-0.375,9.431-2.998,12.252-1.785c-0.074-0.029-7.434-3.181-7.434-3.181c-2.131-5.847-11.681-8.506-11.681-8.506
				c-9.564-2.137-8.623,8.728-8.623,8.728c-0.162,0.308-0.309,0.616-0.457,0.946c0,0-12.267,2.719-12.267-6.802
				c0-11.247-4.188-23.449-10.696-32.543c-5.597-7.816-14.134-12.35-20.877-19.011c-2.646-2.609-5.113-5.364-7.435-8.235
				C2622.241,55.428,2616.436,49.873,2616.436,47.567z"/>
			<linearGradient id="SVGID_8_" gradientUnits="userSpaceOnUse" x1="2669.2837" y1="-16.8398" x2="2748.8418" y2="-16.8398">
				<stop  offset="0.2151" style="stop-color:#CB9A2D"/>
				<stop  offset="0.2258" style="stop-color:#CA9B32"/>
				<stop  offset="0.2943" style="stop-color:#C89F49"/>
				<stop  offset="0.3668" style="stop-color:#C6A25B"/>
				<stop  offset="0.4454" style="stop-color:#C4A465"/>
				<stop  offset="0.5413" style="stop-color:#C4A568"/>
				<stop  offset="0.6336" style="stop-color:#C6A25B"/>
				<stop  offset="0.8055" style="stop-color:#CA9C37"/>
				<stop  offset="0.8504" style="stop-color:#CB9A2D"/>
				<stop  offset="0.902" style="stop-color:#B78B2C"/>
				<stop  offset="0.9908" style="stop-color:#98732B"/>
			</linearGradient>
			<path fill="url(#SVGID_8_)" d="M2686.797-62.125c0,5.745,0.44,11.578,1.366,17.25c0.689,4.246,1.249,8.727,3.056,12.664
				c2.014,4.356,13.973,20.725,1.425,20.725c0,0-14.603-8.764-23.36-0.97c0,0,33.1,14.61,33.1,23.375c0,0-6.802,10.717-3.893,17.527
				l3.54-3.533l2.763-4.466l0.75,7.977c1.469-2.468,3.262-4.833,5.244-6.905c2.705-2.828,6.29-4.606,9.815-6.332
				c6.583-3.24,10.755-6.589,12.945-15.949c0.939-3.93,3.406-3.724,6.538-4.107c2.203-0.278,6.744-2.137,8.756-1.278
				c-0.06-0.022-5.32-2.277-5.32-2.277c-1.512-4.172-8.344-6.075-8.344-6.075c-6.848-1.527-6.157,6.237-6.157,6.237
				c-0.117,0.212-0.235,0.447-0.337,0.681c0,0-8.771,1.941-8.771-4.875c0-8.043-2.997-16.764-7.653-23.273
				c-3.997-5.575-10.094-8.822-14.914-13.583c-1.879-1.858-3.659-3.842-5.333-5.884
				C2690.939-56.511,2686.797-60.486,2686.797-62.125z"/>
			<linearGradient id="SVGID_9_" gradientUnits="userSpaceOnUse" x1="2922.6479" y1="-23.9844" x2="2981.6084" y2="-23.9844">
				<stop  offset="0.2151" style="stop-color:#CB9A2D"/>
				<stop  offset="0.2258" style="stop-color:#CA9B32"/>
				<stop  offset="0.2943" style="stop-color:#C89F49"/>
				<stop  offset="0.3668" style="stop-color:#C6A25B"/>
				<stop  offset="0.4454" style="stop-color:#C4A465"/>
				<stop  offset="0.5413" style="stop-color:#C4A568"/>
				<stop  offset="0.6336" style="stop-color:#C6A25B"/>
				<stop  offset="0.8055" style="stop-color:#CA9C37"/>
				<stop  offset="0.8504" style="stop-color:#CB9A2D"/>
				<stop  offset="0.902" style="stop-color:#B78B2C"/>
				<stop  offset="0.9908" style="stop-color:#98732B"/>
			</linearGradient>
			<path fill="url(#SVGID_9_)" d="M2981.608-37.992c0,0-16.148,0-18.573,9.704c0,0-15.336-36.356-40.387-7.289
				c0,0,37.153,4.856,21.818,25.858c0,0-4.853,13.737,6.449,6.471C2950.915-3.247,2973.523-7.286,2981.608-37.992z"/>
			<linearGradient id="SVGID_10_" gradientUnits="userSpaceOnUse" x1="2752.1436" y1="75.5132" x2="2817.6416" y2="75.5132">
				<stop  offset="0.2151" style="stop-color:#CB9A2D"/>
				<stop  offset="0.2258" style="stop-color:#CA9B32"/>
				<stop  offset="0.2943" style="stop-color:#C89F49"/>
				<stop  offset="0.3668" style="stop-color:#C6A25B"/>
				<stop  offset="0.4454" style="stop-color:#C4A465"/>
				<stop  offset="0.5413" style="stop-color:#C4A568"/>
				<stop  offset="0.6336" style="stop-color:#C6A25B"/>
				<stop  offset="0.8055" style="stop-color:#CA9C37"/>
				<stop  offset="0.8504" style="stop-color:#CB9A2D"/>
				<stop  offset="0.902" style="stop-color:#B78B2C"/>
				<stop  offset="0.9908" style="stop-color:#98732B"/>
			</linearGradient>
			<path fill="url(#SVGID_10_)" d="M2777.24,31.479c0,0-2.425,8.074,7.272,22.627c0,0,1.617,14.536-32.306-9.705
				c0,0-3.219,24.241,36.348,54.132c0,0-12.916,16.955-8.067,20.996c0,0,7.257,0.807,14.53-8.082c0,0,16.97-19.378,22.624-37.155
				c0,0-4.039,0-16.968,1.617C2800.674,75.908,2803.894,50.058,2777.24,31.479z"/>
			<linearGradient id="SVGID_11_" gradientUnits="userSpaceOnUse" x1="2823.0903" y1="-22.4116" x2="2874.1489" y2="-22.4116">
				<stop  offset="0.2151" style="stop-color:#CB9A2D"/>
				<stop  offset="0.2258" style="stop-color:#CA9B32"/>
				<stop  offset="0.2943" style="stop-color:#C89F49"/>
				<stop  offset="0.3668" style="stop-color:#C6A25B"/>
				<stop  offset="0.4454" style="stop-color:#C4A465"/>
				<stop  offset="0.5413" style="stop-color:#C4A568"/>
				<stop  offset="0.6336" style="stop-color:#C6A25B"/>
				<stop  offset="0.8055" style="stop-color:#CA9C37"/>
				<stop  offset="0.8504" style="stop-color:#CB9A2D"/>
				<stop  offset="0.902" style="stop-color:#B78B2C"/>
				<stop  offset="0.9908" style="stop-color:#98732B"/>
			</linearGradient>
			<path fill="url(#SVGID_11_)" d="M2842.68-56.748c0,0-1.881,6.303,5.64,17.631c0,0,1.279,11.343-25.181-7.559
				c0,0-2.499,18.902,28.355,42.196c0,0-10.094,13.23-6.303,16.39c0,0,5.657,0.623,11.329-6.312c0,0,13.235-15.11,17.629-28.965
				c0,0-3.145,0-13.209,1.256C2860.94-22.11,2863.455-42.26,2842.68-56.748z"/>
		</g>
	</g>
</g>
<g id="black_x5F_logo.psd">
	<g>
		<linearGradient id="SVGID_12_" gradientUnits="userSpaceOnUse" x1="3390.4409" y1="808.2925" x2="3683.0498" y2="808.2925">
			<stop  offset="0.2151" style="stop-color:#CB9A2D"/>
			<stop  offset="0.2258" style="stop-color:#CA9B32"/>
			<stop  offset="0.2943" style="stop-color:#C89F49"/>
			<stop  offset="0.3668" style="stop-color:#C6A25B"/>
			<stop  offset="0.4454" style="stop-color:#C4A465"/>
			<stop  offset="0.5413" style="stop-color:#C4A568"/>
			<stop  offset="0.6336" style="stop-color:#C6A25B"/>
			<stop  offset="0.8055" style="stop-color:#CA9C37"/>
			<stop  offset="0.8504" style="stop-color:#CB9A2D"/>
			<stop  offset="0.902" style="stop-color:#B78B2C"/>
			<stop  offset="0.9908" style="stop-color:#98732B"/>
		</linearGradient>
		<path fill-rule="evenodd" clip-rule="evenodd" fill="url(#SVGID_12_)" d="M3683.05,824.821c-0.732,3.336-1.341,6.734-2.211,10.059
			c-1.658,6.052-2.449,6.645-8.576,6.645c-89.917,0.007-179.859-0.012-269.75,0.146c-4.754,0-7.372-1.485-8.869-5.729
			c-0.774-2.223-1.89-4.3-3.203-7.145c2.864,0,4.971,0,7.1,0c16.403,0,32.8,0.014,49.215-0.075c2.608,0,5.374-0.175,7.669-1.234
			c2.009-0.861,4.49-2.771,4.971-4.732c2.164-8.335,2.686-16.879-2.361-24.604c-1.42-2.101-3.263-4.349-5.445-5.499
			c-15.795-8.076-32.236-6.239-42.697,10.402c-1.827,2.964-3.029,6.305-4.618,9.641c-4.04,0-8.113,0-12.213,0
			c2.908-27.04,27.222-40.246,47.526-37.401c23.407,3.327,40.884,24.168,32.309,53.173c35.425,0,70.76,0,106.921,0
			c0-11.371,0-22.668,0-34.313c4.385,0,7.992,0,12.436,0c0,11.366,0,22.598,0,34.156c2.499,0.176,4.146,0.479,5.858,0.479
			c20.542,0.014,41.138,0.007,61.688,0.007c1.319,0,2.666,0.075,3.928-0.082c6.926-0.894,8.711-2.732,8.531-9.71
			c-0.072-4.326-0.397-8.726-1.259-12.963c-1.792-8.721-7.286-14.389-15.767-16.644c-15.393-4.144-25.613-1.053-34.588,9.979
			c-2.07,2.508-3.041,5.981-5.057,10.143c15.898,0,30.467,0,46.281,0c-2.799,4.742-4.913,8.413-7.219,12.383
			c-16.521,0-33.046,0-49.606,0c-3.72-14.628,4.896-33.735,18.593-41.386c15.033-8.394,35.755-6.8,49.389,3.989
			c5.095,4.005,8.861,8.969,9.879,15.634c0.112,0.825,0.744,1.571,1.146,2.332C3683.05,809.945,3683.05,817.405,3683.05,824.821z"/>
		<linearGradient id="SVGID_13_" gradientUnits="userSpaceOnUse" x1="1941.9463" y1="805.4302" x2="2019.4756" y2="805.4302">
			<stop  offset="0.2151" style="stop-color:#CB9A2D"/>
			<stop  offset="0.2258" style="stop-color:#CA9B32"/>
			<stop  offset="0.2943" style="stop-color:#C89F49"/>
			<stop  offset="0.3668" style="stop-color:#C6A25B"/>
			<stop  offset="0.4454" style="stop-color:#C4A465"/>
			<stop  offset="0.5413" style="stop-color:#C4A568"/>
			<stop  offset="0.6336" style="stop-color:#C6A25B"/>
			<stop  offset="0.8055" style="stop-color:#CA9C37"/>
			<stop  offset="0.8504" style="stop-color:#CB9A2D"/>
			<stop  offset="0.902" style="stop-color:#B78B2C"/>
			<stop  offset="0.9908" style="stop-color:#98732B"/>
		</linearGradient>
		<path fill-rule="evenodd" clip-rule="evenodd" fill="url(#SVGID_13_)" d="M1941.946,826.147c0.908-1.492,1.979-2.905,2.708-4.479
			c4.573-9.662,12.325-15.543,22.919-19.045c1.792,3.671,3.546,7.315,5.503,11.297c-1.552,0.575-2.698,1.104-3.884,1.432
			c-8.472,2.246-12.423,6.466-13.675,14.7c-1.02,6.737,2.549,13.475,9.327,17.365c5.03,2.835,10.241,4.089,16.239,2.917
			c6.516-1.319,12.716-2.992,18.032-7.138c4.491-3.438,7.025-7.661,6.942-13.9c-0.292-24.497-0.12-48.955-0.12-73.455
			c0-2.399,0-4.751,0-7.581c4.574,0,8.57,0,13.36,0c0,2.601,0,4.931,0,7.311c0,23.795-0.45,47.645,0.165,71.487
			c0.36,14.888-6.597,24.448-19.208,30.505c-10.031,4.816-20.731,6.057-31.827,4.25c-8.982-1.432-15.759-6.079-21.052-13.142
			c-1.942-2.6-3.614-5.404-5.429-8.085C1941.946,835.769,1941.946,830.959,1941.946,826.147z"/>
		<linearGradient id="SVGID_14_" gradientUnits="userSpaceOnUse" x1="2597.5947" y1="575.5952" x2="2736.8545" y2="575.5952">
			<stop  offset="0.2151" style="stop-color:#CB9A2D"/>
			<stop  offset="0.2258" style="stop-color:#CA9B32"/>
			<stop  offset="0.2943" style="stop-color:#C89F49"/>
			<stop  offset="0.3668" style="stop-color:#C6A25B"/>
			<stop  offset="0.4454" style="stop-color:#C4A465"/>
			<stop  offset="0.5413" style="stop-color:#C4A568"/>
			<stop  offset="0.6336" style="stop-color:#C6A25B"/>
			<stop  offset="0.8055" style="stop-color:#CA9C37"/>
			<stop  offset="0.8504" style="stop-color:#CB9A2D"/>
			<stop  offset="0.902" style="stop-color:#B78B2C"/>
			<stop  offset="0.9908" style="stop-color:#98732B"/>
		</linearGradient>
		<path fill-rule="evenodd" clip-rule="evenodd" fill="url(#SVGID_14_)" d="M2713.993,643.75c-2.535-0.531-4.362-0.384-5.54-1.179
			c-13.615-9.037-27.072-18.262-41.058-27.71c-8.291,5.561-16.621,11.089-24.99,16.717c-4.99,3.39-9.804,6.945-14.812,10.207
			c-1.435,0.954-3.261,1.345-5.146,2.121c-1.512-2.976-2.103-5.146-1.199-8.084c3.909-13.025,7.445-26.156,11.314-39.151
			c1.043-3.556,0.021-5.776-2.69-7.996c-9.939-8.143-19.744-16.443-29.584-24.663c-0.629-0.531-1.67-0.875-1.906-1.514
			c-0.471-1.314-1.081-2.985-0.628-4.068c0.392-0.992,2.061-1.688,3.319-2.005c1.354-0.33,2.888-0.105,4.36-0.105
			c11.865,0,23.732,0.012,35.559,0c5.284-0.049,5.362-0.067,7.248-4.882c4.93-12.74,9.744-25.538,14.811-38.229
			c0.924-2.278,0.768-5.911,4.48-5.923c3.732-0.01,3.558,3.487,4.439,5.855c4.853,12.759,9.823,25.508,14.418,38.355
			c1.339,3.871,3.48,4.989,7.35,4.9c12.061-0.227,24.144-0.077,36.226-0.077c2.003,0,4.046,0,5.795,0
			c1.906,3.565,1.256,5.542-1.415,7.572c-10.607,8.153-21,16.641-31.706,24.725c-2.731,2.073-3.752,3.996-2.632,7.278
			c3.025,8.784,5.853,17.631,8.781,26.423c1.63,4.9,3.317,9.733,4.792,14.704C2714.05,638.692,2713.834,640.605,2713.993,643.75z"/>
		<linearGradient id="SVGID_15_" gradientUnits="userSpaceOnUse" x1="2442.5479" y1="576.894" x2="2581.9863" y2="576.894">
			<stop  offset="0.2151" style="stop-color:#CB9A2D"/>
			<stop  offset="0.2258" style="stop-color:#CA9B32"/>
			<stop  offset="0.2943" style="stop-color:#C89F49"/>
			<stop  offset="0.3668" style="stop-color:#C6A25B"/>
			<stop  offset="0.4454" style="stop-color:#C4A465"/>
			<stop  offset="0.5413" style="stop-color:#C4A568"/>
			<stop  offset="0.6336" style="stop-color:#C6A25B"/>
			<stop  offset="0.8055" style="stop-color:#CA9C37"/>
			<stop  offset="0.8504" style="stop-color:#CB9A2D"/>
			<stop  offset="0.902" style="stop-color:#B78B2C"/>
			<stop  offset="0.9908" style="stop-color:#98732B"/>
		</linearGradient>
		<path fill-rule="evenodd" clip-rule="evenodd" fill="url(#SVGID_15_)" d="M2558.973,645.106c-2.67-0.816-4.713-0.954-6.206-1.977
			c-13.458-8.859-26.834-17.816-40.508-26.981c-8.35,5.609-16.72,11.227-25.088,16.915c-4.969,3.341-9.821,6.836-14.872,10.137
			c-1.413,0.882-3.239,1.197-5.087,1.834c-1.552-3.329-1.63-5.832-0.688-8.868c3.91-12.797,7.407-25.714,11.1-38.543
			c0.924-3.163,0.196-5.374-2.495-7.525c-10.138-8.221-19.998-16.743-30.135-24.947c-2.612-2.109-3.242-4.087-1.356-7.574
			c1.983,0,4.204,0,6.463,0c12.063,0,24.145-0.127,36.187,0.07c3.635,0.03,5.698-0.992,6.895-4.644
			c2.672-8.048,5.738-15.992,8.782-23.901c2.299-6.012,4.774-11.933,7.367-17.807c0.51-1.151,2.004-2.721,2.849-2.606
			c1.335,0.147,2.748,1.368,3.751,2.489c0.747,0.863,0.785,2.307,1.219,3.477c4.812,12.789,9.762,25.528,14.378,38.386
			c1.279,3.614,3.242,4.655,6.898,4.606c11.864-0.209,23.729-0.07,35.576-0.07c1.059,0,2.102-0.047,3.124,0.012
			c1.806,0.089,3.967-0.394,4.655,2.052c0.628,2.238-0.216,3.831-2.142,5.314c-8.152,6.307-16.168,12.74-24.281,19.154
			c-2.259,1.809-4.538,3.584-6.895,5.294c-4.597,3.35-4.893,3.722-3.145,9.262c2.733,8.456,5.697,16.796,8.547,25.216
			c1.572,4.683,3.221,9.331,4.558,14.092C2558.954,639.871,2558.759,641.941,2558.973,645.106z"/>
		<linearGradient id="SVGID_16_" gradientUnits="userSpaceOnUse" x1="2757.5859" y1="576.8638" x2="2896.7998" y2="576.8638">
			<stop  offset="0.2151" style="stop-color:#CB9A2D"/>
			<stop  offset="0.2258" style="stop-color:#CA9B32"/>
			<stop  offset="0.2943" style="stop-color:#C89F49"/>
			<stop  offset="0.3668" style="stop-color:#C6A25B"/>
			<stop  offset="0.4454" style="stop-color:#C4A465"/>
			<stop  offset="0.5413" style="stop-color:#C4A568"/>
			<stop  offset="0.6336" style="stop-color:#C6A25B"/>
			<stop  offset="0.8055" style="stop-color:#CA9C37"/>
			<stop  offset="0.8504" style="stop-color:#CB9A2D"/>
			<stop  offset="0.902" style="stop-color:#B78B2C"/>
			<stop  offset="0.9908" style="stop-color:#98732B"/>
		</linearGradient>
		<path fill-rule="evenodd" clip-rule="evenodd" fill="url(#SVGID_16_)" d="M2895.985,557.576c1.568,3.899,0.785,5.717-1.595,7.535
			c-10.271,7.916-20.255,16.226-30.703,24.055c-5.033,3.802-5.07,3.272-3.223,9.765c2.38,8.506,5.616,16.796,8.446,25.194
			c1.597,4.686,3.26,9.332,4.656,14.085c0.495,1.689,0.257,3.645,0.392,5.54c-2.356,1.284-4.028,1.111-5.985-0.236
			c-13.322-9.084-26.76-18.031-40.589-27.365c-8.255,5.48-16.62,11.069-24.931,16.688c-4.988,3.359-9.804,6.887-14.813,10.204
			c-1.472,0.942-3.279,1.356-5.125,2.134c-1.574-2.929-2.142-5.138-1.259-8.076c3.891-12.985,7.426-26.155,11.296-39.142
			c1.042-3.546,0.097-5.794-2.671-8.007c-9.902-8.15-19.704-16.441-29.584-24.683c-0.649-0.491-1.612-0.863-1.887-1.511
			c-0.492-1.259-1.12-2.93-0.667-4.038c0.392-0.982,2.062-1.74,3.318-2.042c1.355-0.335,2.869-0.101,4.283-0.101
			c11.709,0,23.338,0.012,34.988-0.019c5.993-0.01,6.03-0.028,8.133-5.393c4.854-12.544,9.569-25.167,14.556-37.658
			c0.941-2.291,0.787-5.933,4.44-5.954c4.129-0.019,3.792,3.909,4.757,6.384c4.95,12.74,9.784,25.49,14.379,38.377
			c1.198,3.319,3.023,4.363,6.482,4.333c12.278-0.188,24.56-0.07,36.811-0.07C2891.936,557.576,2893.998,557.576,2895.985,557.576z"
			/>
		<linearGradient id="SVGID_17_" gradientUnits="userSpaceOnUse" x1="2906.3438" y1="576.9165" x2="3045.604" y2="576.9165">
			<stop  offset="0.2151" style="stop-color:#CB9A2D"/>
			<stop  offset="0.2258" style="stop-color:#CA9B32"/>
			<stop  offset="0.2943" style="stop-color:#C89F49"/>
			<stop  offset="0.3668" style="stop-color:#C6A25B"/>
			<stop  offset="0.4454" style="stop-color:#C4A465"/>
			<stop  offset="0.5413" style="stop-color:#C4A568"/>
			<stop  offset="0.6336" style="stop-color:#C6A25B"/>
			<stop  offset="0.8055" style="stop-color:#CA9C37"/>
			<stop  offset="0.8504" style="stop-color:#CB9A2D"/>
			<stop  offset="0.902" style="stop-color:#B78B2C"/>
			<stop  offset="0.9908" style="stop-color:#98732B"/>
		</linearGradient>
		<path fill-rule="evenodd" clip-rule="evenodd" fill="url(#SVGID_17_)" d="M3022.419,645.034c-2.296-0.56-4.107-0.478-5.303-1.284
			c-13.599-9.077-27.068-18.268-41.021-27.682c-8.35,5.607-16.699,11.229-25.028,16.855c-4.951,3.34-9.819,6.889-14.853,10.194
			c-1.449,0.947-3.259,1.279-5.187,2.005c-1.436-3.259-1.767-5.638-0.783-8.789c3.93-12.752,7.344-25.697,11.077-38.545
			c0.946-3.182,0.236-5.46-2.314-7.542c-10.057-8.291-20.003-16.806-30.133-24.979c-2.594-2.082-3.188-4.038-1.811-7.591
			c15.87,0,31.782,0,47.994,0c3.473-9.03,6.739-17.533,9.998-26.012c2.615-6.746,5.143-13.535,7.973-20.214
			c0.509-1.237,2.238-2.81,3.339-2.739c1.256,0.059,2.929,1.589,3.482,2.856c3.79,9.854,7.285,19.783,10.957,29.665
			c1.942,5.254,3.989,10.449,6.23,16.354c16.027,0,31.944,0,47.542,0c1.883,3.693,1.059,5.616-1.573,7.624
			c-10.448,8.042-20.741,16.352-31.177,24.425c-4.109,3.174-4.419,3.115-2.806,8.223c2.667,8.692,5.695,17.238,8.525,25.803
			c1.627,4.9,3.414,9.745,4.811,14.714C3022.851,640.046,3022.419,642.001,3022.419,645.034z"/>
		<linearGradient id="SVGID_18_" gradientUnits="userSpaceOnUse" x1="3062.5894" y1="576.8276" x2="3201.8516" y2="576.8276">
			<stop  offset="0.2151" style="stop-color:#CB9A2D"/>
			<stop  offset="0.2258" style="stop-color:#CA9B32"/>
			<stop  offset="0.2943" style="stop-color:#C89F49"/>
			<stop  offset="0.3668" style="stop-color:#C6A25B"/>
			<stop  offset="0.4454" style="stop-color:#C4A465"/>
			<stop  offset="0.5413" style="stop-color:#C4A568"/>
			<stop  offset="0.6336" style="stop-color:#C6A25B"/>
			<stop  offset="0.8055" style="stop-color:#CA9C37"/>
			<stop  offset="0.8504" style="stop-color:#CB9A2D"/>
			<stop  offset="0.902" style="stop-color:#B78B2C"/>
			<stop  offset="0.9908" style="stop-color:#98732B"/>
		</linearGradient>
		<path fill-rule="evenodd" clip-rule="evenodd" fill="url(#SVGID_18_)" d="M3200.794,557.576c1.847,3.576,1.219,5.561-1.457,7.604
			c-10.606,8.132-21.014,16.619-31.747,24.692c-2.783,2.121-3.67,4.047-2.547,7.308c2.962,8.764,5.815,17.61,8.756,26.401
			c1.608,4.903,3.341,9.758,4.759,14.708c0.507,1.68,0.251,3.574,0.414,6.414c-2.283-0.355-4.308-0.079-5.6-0.936
			c-10.807-7.198-21.514-14.635-32.256-21.943c-2.756-1.876-5.581-3.516-8.904-5.607c-8.154,5.458-16.5,11.01-24.851,16.668
			c-4.955,3.351-9.799,6.866-14.807,10.167c-1.459,0.952-3.225,1.345-5.167,2.07c-1.455-2.945-2.026-5.165-1.125-8.092
			c3.889-12.997,7.463-26.106,11.277-39.153c0.903-3.123,0.429-5.411-2.2-7.594c-10.115-8.239-20.076-16.677-30.097-25.026
			c-0.628-0.54-1.67-0.884-1.862-1.581c-0.496-1.259-1.081-2.927-0.63-4.037c0.414-0.94,2.101-1.661,3.355-1.963
			c1.396-0.335,2.89-0.101,4.324-0.101c11.865,0,23.714,0.021,35.596-0.028c5.246-0.019,5.306-0.04,7.209-4.861
			c5.01-12.967,9.961-25.943,15.053-38.84c0.843-2.122,0.821-5.383,4.258-5.313c3.34,0.077,3.34,3.004,4.189,5.313
			c4.773,12.811,9.582,25.608,14.475,38.367c2.084,5.362,2.241,5.334,8.15,5.362c11.89,0,23.757,0,35.617,0
			C3197.024,557.576,3199.065,557.576,3200.794,557.576z"/>
		<linearGradient id="SVGID_19_" gradientUnits="userSpaceOnUse" x1="2178.085" y1="822.8462" x2="2449.9819" y2="822.8462">
			<stop  offset="0.2151" style="stop-color:#CB9A2D"/>
			<stop  offset="0.2258" style="stop-color:#CA9B32"/>
			<stop  offset="0.2943" style="stop-color:#C89F49"/>
			<stop  offset="0.3668" style="stop-color:#C6A25B"/>
			<stop  offset="0.4454" style="stop-color:#C4A465"/>
			<stop  offset="0.5413" style="stop-color:#C4A568"/>
			<stop  offset="0.6336" style="stop-color:#C6A25B"/>
			<stop  offset="0.8055" style="stop-color:#CA9C37"/>
			<stop  offset="0.8504" style="stop-color:#CB9A2D"/>
			<stop  offset="0.902" style="stop-color:#B78B2C"/>
			<stop  offset="0.9908" style="stop-color:#98732B"/>
		</linearGradient>
		<path fill-rule="evenodd" clip-rule="evenodd" fill="url(#SVGID_19_)" d="M2425.435,828.556c4.627,0,8.307,0,12.634,0
			c0-14.63,0-29.178,0-43.792c4.131-1.656,7.722-3.076,11.914-4.742c0,20.683,0,40.637,0,61.251c-65.94,0-131.684,0-197.588,0
			c-1.993,4.576-3.695,8.801-5.594,12.881c-3.26,6.957-8.763,11.235-16.111,13.227c-1.47,0.407-2.991,0.729-4.483,0.734
			c-8.758,0.077-17.508,0.007-26.594,0.007c-2.25-3.93-4.483-7.891-7.077-12.474c1.919-0.245,3.269-0.575,4.64-0.575
			c8.968-0.079,17.965-0.414,26.886,0.084c5.077,0.323,8.391-1.754,11.067-5.341c1.627-2.154,2.728-4.721,4.521-7.948
			c-3.3-0.115-5.384-0.332-7.521-0.332c-11.357-0.012-22.718,0-34.098-0.012c-9.147-0.008-17.306-5.889-18.736-14.951
			c-1.162-7.42-1.731-15.313-0.578-22.708c2.152-14.038,17.718-26.177,31.97-26.257c4.798-0.004,9.717-0.329,14.373,0.513
			c16.382,3.14,25.874,13.86,27.913,31.139c0.458,3.846,0.375,7.82,0.503,11.739c0.052,2.325,0.007,4.721,0.007,7.319
			c1.919,0.229,3.165,0.416,4.417,0.473c7.384,0.014,14.785,0.007,22.694,0.007c0-11.634,0-22.747,0-34.409
			c4.491,0,8.458,0,13.443,0c0.382,11.054-0.075,22.282,0.255,33.93c31.646,0,62.783,0,94.729,0c0-14.392,0-28.939,0-43.572
			c4.169-1.72,7.738-3.148,12.221-4.971c0,16.688,0,32.475,0,48.613c4.244,0,7.843,0,11.92,0c0-14.525,0-28.847,0-43.624
			c4.042-1.593,7.775-3.088,12.273-4.91C2425.435,796.468,2425.435,812.171,2425.435,828.556z M2242.257,828.797
			c0-4.746,0.151-8.466-0.067-12.127c-0.142-2.575-0.674-5.158-1.177-7.725c-4.07-20.034-24.238-23.684-37.719-18.469
			c-10.52,4.08-17.057,18.46-14.171,29.365c1.522,5.795,5.645,8.883,11.839,8.955c6.343,0.007,12.664,0,19.006,0
			C2227.12,828.797,2234.28,828.797,2242.257,828.797z"/>
		<linearGradient id="SVGID_20_" gradientUnits="userSpaceOnUse" x1="2723.9429" y1="795.3618" x2="3056.6475" y2="795.3618">
			<stop  offset="0.2151" style="stop-color:#CB9A2D"/>
			<stop  offset="0.2258" style="stop-color:#CA9B32"/>
			<stop  offset="0.2943" style="stop-color:#C89F49"/>
			<stop  offset="0.3668" style="stop-color:#C6A25B"/>
			<stop  offset="0.4454" style="stop-color:#C4A465"/>
			<stop  offset="0.5413" style="stop-color:#C4A568"/>
			<stop  offset="0.6336" style="stop-color:#C6A25B"/>
			<stop  offset="0.8055" style="stop-color:#CA9C37"/>
			<stop  offset="0.8504" style="stop-color:#CB9A2D"/>
			<stop  offset="0.902" style="stop-color:#B78B2C"/>
			<stop  offset="0.9908" style="stop-color:#98732B"/>
		</linearGradient>
		<path fill-rule="evenodd" clip-rule="evenodd" fill="url(#SVGID_20_)" d="M2761.854,773.458c1.485,4.067,2.729,7.485,4.048,11.21
			c-4.559,0.768-8.802,1.179-12.879,2.335c-9.538,2.728-14.943,10.054-15.04,19.767c-0.159,9.659,4.819,17.063,13.794,19.945
			c3.501,1.098,7.243,1.837,10.886,1.928c9.334,0.26,18.714,0.082,28.85,0.082c0-6.229-0.262-12.055,0.083-17.798
			c0.269-4.323,1.086-8.646,2.241-12.861c4.829-18.044,18.864-24.703,36.085-22.354c19.768,2.805,27.5,16.687,28.754,34.975
			c0.397,5.647,0.082,11.318,0.082,17.115c4.239,1.251,177.168,1.651,186.17,0.238c0-26.079,0-52.254,0-78.861
			c4.125,0,7.648,0,11.72,0c0,30.5,0,60.998,0,91.858c-1.844,0.218-3.517,0.479-5.203,0.479
			c-96.29,0.015-192.61,0.087-288.863-0.063c-10.295-0.008-19.846-3.671-27.929-9.891c-16.449-12.563-11.696-37.647-0.817-47.065
			C2741.73,777.608,2751.042,774.528,2761.854,773.458z M2846.192,828.487c2.656-8.313,2.573-21.204-0.172-28.442
			c-1.89-4.816-4.463-9.214-9.546-11.044c-14.199-5.076-31.016-3.651-33.482,17.206c-0.091,0.838-0.503,1.668-0.569,2.563
			c-0.436,6.581-1.531,13.295,1.065,19.717C2818.017,828.487,2832.157,828.487,2846.192,828.487z"/>
		<linearGradient id="SVGID_21_" gradientUnits="userSpaceOnUse" x1="3244.7183" y1="821.0376" x2="3377.418" y2="821.0376">
			<stop  offset="0.2151" style="stop-color:#CB9A2D"/>
			<stop  offset="0.2258" style="stop-color:#CA9B32"/>
			<stop  offset="0.2943" style="stop-color:#C89F49"/>
			<stop  offset="0.3668" style="stop-color:#C6A25B"/>
			<stop  offset="0.4454" style="stop-color:#C4A465"/>
			<stop  offset="0.5413" style="stop-color:#C4A568"/>
			<stop  offset="0.6336" style="stop-color:#C6A25B"/>
			<stop  offset="0.8055" style="stop-color:#CA9C37"/>
			<stop  offset="0.8504" style="stop-color:#CB9A2D"/>
			<stop  offset="0.902" style="stop-color:#B78B2C"/>
			<stop  offset="0.9908" style="stop-color:#98732B"/>
		</linearGradient>
		<path fill-rule="evenodd" clip-rule="evenodd" fill="url(#SVGID_21_)" d="M3271.471,806.878c0.833,3.401,1.687,6.88,2.58,10.613
			c-2.093,0.517-3.571,0.842-4.993,1.256c-10.236,2.838-12.655,12.055-11.315,22.109c1.079,8.07,7.169,12.801,16.382,12.813
			c23.611,0.136,47.235,0.147,70.846,0c9.167-0.012,12.833-2.92,16.134-11.393c6.059-15.458,4.26-30.421-2.91-44.896
			c-2.903-5.879-8.712-8.548-14.755-9.961c-14.873-3.485-27.448,1.82-32.074,15.947c-1.349,4.171-1.411,9.056-1.004,13.486
			c0.668,7.559,4.237,10.55,11.884,10.96c10.444,0.505,20.873,0.921,32.141,1.422c-2.271,4.131-4.461,8.031-6.882,12.296
			c-10.497-0.424-20.886,1.066-31.324-1.022c-9.837-1.991-16.075-7.872-17.4-17.77c-0.871-6.405-0.961-13.121-0.294-19.541
			c0.87-8.203,5.104-14.861,11.93-19.523c15.105-10.385,31.075-10.628,47.136-2.917c12.663,5.993,17.807,17.477,19.344,30.68
			c1.408,12.043-0.18,23.938-2.896,35.729c-2.887,12.303-10.48,18.854-23.938,19.127c-27.764,0.585-55.548,0.486-83.272,0.007
			c-8.773-0.105-15.193-6.085-18.507-13.793c-3.237-7.512-4.259-15.731-3.102-24.287
			C3246.94,814.83,3259.807,806.709,3271.471,806.878z"/>
		<linearGradient id="SVGID_22_" gradientUnits="userSpaceOnUse" x1="3348.1299" y1="976.9448" x2="3434.6006" y2="976.9448">
			<stop  offset="0.2151" style="stop-color:#CB9A2D"/>
			<stop  offset="0.2258" style="stop-color:#CA9B32"/>
			<stop  offset="0.2943" style="stop-color:#C89F49"/>
			<stop  offset="0.3668" style="stop-color:#C6A25B"/>
			<stop  offset="0.4454" style="stop-color:#C4A465"/>
			<stop  offset="0.5413" style="stop-color:#C4A568"/>
			<stop  offset="0.6336" style="stop-color:#C6A25B"/>
			<stop  offset="0.8055" style="stop-color:#CA9C37"/>
			<stop  offset="0.8504" style="stop-color:#CB9A2D"/>
			<stop  offset="0.902" style="stop-color:#B78B2C"/>
			<stop  offset="0.9908" style="stop-color:#98732B"/>
		</linearGradient>
		<path fill-rule="evenodd" clip-rule="evenodd" fill="url(#SVGID_22_)" d="M3419.989,979.96c-19.623,0-38.105,0-57.26,0
			c0,16.963,0,33.687,0,50.908c-5.18,0-9.654,0-14.6,0c0-36.03,0-71.911,0-108.362c4.451,0,8.92,0,14.263,0
			c0,14.534,0,28.979,0,43.815c19.253,0,37.736,0,57.087,0c0.344-7.102,0.105-14.274,0.156-21.468
			c0.037-7.259,0.008-14.536,0.008-22.284c5.24,0,9.906,0,14.957,0c0,36.222,0,72.082,0,108.813c-2.732,0-5.081,0-7.418,0
			c-2.183,0-4.349,0-7.193,0C3419.989,1014.147,3419.989,997.435,3419.989,979.96z"/>
		<linearGradient id="SVGID_23_" gradientUnits="userSpaceOnUse" x1="2054.6812" y1="991.7661" x2="2164.9644" y2="991.7661">
			<stop  offset="0.2151" style="stop-color:#CB9A2D"/>
			<stop  offset="0.2258" style="stop-color:#CA9B32"/>
			<stop  offset="0.2943" style="stop-color:#C89F49"/>
			<stop  offset="0.3668" style="stop-color:#C6A25B"/>
			<stop  offset="0.4454" style="stop-color:#C4A465"/>
			<stop  offset="0.5413" style="stop-color:#C4A568"/>
			<stop  offset="0.6336" style="stop-color:#C6A25B"/>
			<stop  offset="0.8055" style="stop-color:#CA9C37"/>
			<stop  offset="0.8504" style="stop-color:#CB9A2D"/>
			<stop  offset="0.902" style="stop-color:#B78B2C"/>
			<stop  offset="0.9908" style="stop-color:#98732B"/>
		</linearGradient>
		<path fill-rule="evenodd" clip-rule="evenodd" fill="url(#SVGID_23_)" d="M2054.681,952.459c5.043,0,9.376,0,14.397,0
			c5.566,19.664,11.169,39.518,16.772,59.339c0.299,0.008,0.613,0.008,0.904,0.008c5.423-19.697,10.826-39.479,16.31-59.4
			c4.79,0,9.383,0,14.427,0c5.021,19.145,10.027,38.227,15.047,57.342c0.433,0.034,0.866,0.112,1.315,0.131
			c6.298-18.827,11.393-38.092,17.617-57.333c4.364,0,8.622,0,13.494,0c-8.436,26.327-16.773,52.338-25.171,78.548
			c-4.736,0-9.092,0-14.329,0c-5.08-18.943-10.184-38.019-15.592-58.186c-0.928,2.159-1.63,3.366-1.989,4.702
			c-4.257,15.968-8.457,31.999-12.708,47.973c-0.479,1.89-1.12,3.747-1.695,5.544c-4.872,0-9.242,0-14.151,0
			C2071.147,1005,2062.996,978.963,2054.681,952.459z"/>
		<linearGradient id="SVGID_24_" gradientUnits="userSpaceOnUse" x1="1951.3091" y1="976.4878" x2="2054.0688" y2="976.4878">
			<stop  offset="0.2151" style="stop-color:#CB9A2D"/>
			<stop  offset="0.2258" style="stop-color:#CA9B32"/>
			<stop  offset="0.2943" style="stop-color:#C89F49"/>
			<stop  offset="0.3668" style="stop-color:#C6A25B"/>
			<stop  offset="0.4454" style="stop-color:#C4A465"/>
			<stop  offset="0.5413" style="stop-color:#C4A568"/>
			<stop  offset="0.6336" style="stop-color:#C6A25B"/>
			<stop  offset="0.8055" style="stop-color:#CA9C37"/>
			<stop  offset="0.8504" style="stop-color:#CB9A2D"/>
			<stop  offset="0.902" style="stop-color:#B78B2C"/>
			<stop  offset="0.9908" style="stop-color:#98732B"/>
		</linearGradient>
		<path fill-rule="evenodd" clip-rule="evenodd" fill="url(#SVGID_24_)" d="M2054.069,1031.206c-5.835,0-10.677,0-16.213,0
			c-4.206-10.665-8.487-21.458-12.775-32.348c-15.555,0-30.751,0-46.27,0c-4.117,10.814-8.151,21.479-12.186,32.116
			c-5.223,0-9.938,0-15.316,0c0.859-2.571,1.494-4.642,2.271-6.646c12.5-32.11,25.029-64.194,37.558-96.285
			c2.354-6.05,2.369-6.05,9.011-6.057c1.127-0.014,2.249,0.164,3.325-0.067c4.565-0.77,6.568,1.49,8.233,5.544
			c13.374,32.741,26.986,65.342,40.509,98.007C2052.88,1027.018,2053.276,1028.686,2054.069,1031.206z M1983.496,986.237
			c12.364,0,24.184,0,36.586,0c-6.425-17.021-12.641-33.422-18.707-49.622C1995.465,952.986,1989.584,969.302,1983.496,986.237z"/>
		<linearGradient id="SVGID_25_" gradientUnits="userSpaceOnUse" x1="2027.8604" y1="795.064" x2="2165.0342" y2="795.064">
			<stop  offset="0.2151" style="stop-color:#CB9A2D"/>
			<stop  offset="0.2258" style="stop-color:#CA9B32"/>
			<stop  offset="0.2943" style="stop-color:#C89F49"/>
			<stop  offset="0.3668" style="stop-color:#C6A25B"/>
			<stop  offset="0.4454" style="stop-color:#C4A465"/>
			<stop  offset="0.5413" style="stop-color:#C4A568"/>
			<stop  offset="0.6336" style="stop-color:#C6A25B"/>
			<stop  offset="0.8055" style="stop-color:#CA9C37"/>
			<stop  offset="0.8504" style="stop-color:#CB9A2D"/>
			<stop  offset="0.902" style="stop-color:#B78B2C"/>
			<stop  offset="0.9908" style="stop-color:#98732B"/>
		</linearGradient>
		<path fill-rule="evenodd" clip-rule="evenodd" fill="url(#SVGID_25_)" d="M2039.46,749.091c0,13.293,0,26.285,0,39.332
			c0,13.121,0,26.177,0,39.137c4.954,1.425,104.056,1.904,113.525,0.503c0-11.069,0-22.357,0-33.986c4.38,0,7.978,0,12.049,0
			c0,15.7,0,31.088,0,46.96c-45.637,0-91.2,0-137.174,0c0-30.614,0-61.096,0-91.945
			C2031.542,749.091,2035.117,749.091,2039.46,749.091z"/>
		<linearGradient id="SVGID_26_" gradientUnits="userSpaceOnUse" x1="3177.8745" y1="991.8647" x2="3251.2573" y2="991.8647">
			<stop  offset="0.2151" style="stop-color:#CB9A2D"/>
			<stop  offset="0.2258" style="stop-color:#CA9B32"/>
			<stop  offset="0.2943" style="stop-color:#C89F49"/>
			<stop  offset="0.3668" style="stop-color:#C6A25B"/>
			<stop  offset="0.4454" style="stop-color:#C4A465"/>
			<stop  offset="0.5413" style="stop-color:#C4A568"/>
			<stop  offset="0.6336" style="stop-color:#C6A25B"/>
			<stop  offset="0.8055" style="stop-color:#CA9C37"/>
			<stop  offset="0.8504" style="stop-color:#CB9A2D"/>
			<stop  offset="0.902" style="stop-color:#B78B2C"/>
			<stop  offset="0.9908" style="stop-color:#98732B"/>
		</linearGradient>
		<path fill-rule="evenodd" clip-rule="evenodd" fill="url(#SVGID_26_)" d="M3234.791,1023.566
			c-7.187,2.996-14.04,6.351-21.308,8.81c-7.889,2.692-15.795,1.266-23.138-2.27c-8.047-3.881-12.344-10.484-12.47-19.515
			c-0.046-8.957,3.602-16.181,11.819-19.87c5.708-2.604,12.074-3.986,18.253-5.291c8.203-1.685,16.51-2.705,24.498-3.991
			c3.378-11.755-1.823-19.396-13.254-20.151c-3.347-0.229-6.643-0.236-9.938,0.03c-6.686,0.644-11.655,3.827-14.099,10.319
			c-0.484,1.247-0.924,2.454-1.687,4.386c-4.206-0.542-8.466-1.11-12.695-1.695c1.704-12.935,10.685-21.328,24.53-23.454
			c7.484-1.161,14.896-1.266,22.427-0.07c9.183,1.487,19.089,6.695,19.492,19.744c0.105,5.043,0.584,10.094,0.63,15.135
			c0.148,6.883,0.045,13.758,0.126,20.572c0.014,4.194-0.148,8.417,0.366,12.571c0.509,3.889,1.771,7.669,2.914,12.343
			c-4.005,0.044-7.816,0.309-11.655,0.037c-1.107-0.086-2.467-1.593-3.138-2.77
			C3235.545,1026.756,3235.148,1024.743,3234.791,1023.566z M3233.319,992.384c-9.497,1.685-18.334,3.254-27.181,4.885
			c-2.146,0.426-4.267,1.167-6.261,2.015c-4.663,2.025-7.27,5.717-7.128,10.89c0.195,5.076,2.99,8.69,7.615,10.672
			c13.538,5.822,30.659-3.488,32.909-17.945C3233.774,999.461,3233.319,995.921,3233.319,992.384z"/>
		<linearGradient id="SVGID_27_" gradientUnits="userSpaceOnUse" x1="2842.0957" y1="991.7036" x2="2916.2627" y2="991.7036">
			<stop  offset="0.2151" style="stop-color:#CB9A2D"/>
			<stop  offset="0.2258" style="stop-color:#CA9B32"/>
			<stop  offset="0.2943" style="stop-color:#C89F49"/>
			<stop  offset="0.3668" style="stop-color:#C6A25B"/>
			<stop  offset="0.4454" style="stop-color:#C4A465"/>
			<stop  offset="0.5413" style="stop-color:#C4A568"/>
			<stop  offset="0.6336" style="stop-color:#C6A25B"/>
			<stop  offset="0.8055" style="stop-color:#CA9C37"/>
			<stop  offset="0.8504" style="stop-color:#CB9A2D"/>
			<stop  offset="0.902" style="stop-color:#B78B2C"/>
			<stop  offset="0.9908" style="stop-color:#98732B"/>
		</linearGradient>
		<path fill-rule="evenodd" clip-rule="evenodd" fill="url(#SVGID_27_)" d="M2897.877,980.976c0-2.524,0.081-4.038,0-5.572
			c-0.255-7.991-4.371-12.937-12.276-13.927c-4.356-0.51-8.883-0.493-13.202,0c-6.119,0.679-10.646,4.026-12.917,9.968
			c-0.575,1.425-1.165,2.801-1.927,4.66c-4.198-0.594-8.308-1.188-12.858-1.804c1.599-10.136,6.874-16.927,15.786-20.74
			c7.831-3.341,16.213-4.129,24.633-3.457c4.184,0.285,8.398,0.884,12.342,2.187c8.031,2.55,13.179,7.896,13.77,16.675
			c0.343,5.289,0.753,10.576,0.85,15.873c0.165,6.384,0,12.816,0.083,19.227c0.164,8.967-0.761,18.073,4.102,26.984
			c-5.447,0-9.742,0-14.434,0c-1.017-2.69-2.032-5.311-3.206-8.354c-2.041,1.284-4.02,2.55-6.037,3.724
			c-10.685,6.134-21.778,9.369-34.182,5.282c-9.518-3.179-15.629-10.31-16.234-19.59c-0.739-10.313,3.96-18.992,13.875-22.437
			c8.054-2.774,16.706-3.911,25.103-5.603C2886.453,982.981,2891.84,982.066,2897.877,980.976z M2897.877,991.884
			c-5.223,1.19-9.667,2.327-14.196,3.204c-5.977,1.254-12.178,1.978-18.064,3.61c-5.784,1.649-8.735,6.052-8.727,11.173
			c0.066,5.345,3.592,9.658,9.315,11.432c15.712,4.922,30.916-5.675,31.671-22.048
			C2897.967,997.066,2897.877,994.883,2897.877,991.884z"/>
		<linearGradient id="SVGID_28_" gradientUnits="userSpaceOnUse" x1="2171.3638" y1="991.7017" x2="2244.8911" y2="991.7017">
			<stop  offset="0.2151" style="stop-color:#CB9A2D"/>
			<stop  offset="0.2258" style="stop-color:#CA9B32"/>
			<stop  offset="0.2943" style="stop-color:#C89F49"/>
			<stop  offset="0.3668" style="stop-color:#C6A25B"/>
			<stop  offset="0.4454" style="stop-color:#C4A465"/>
			<stop  offset="0.5413" style="stop-color:#C4A568"/>
			<stop  offset="0.6336" style="stop-color:#C6A25B"/>
			<stop  offset="0.8055" style="stop-color:#CA9C37"/>
			<stop  offset="0.8504" style="stop-color:#CB9A2D"/>
			<stop  offset="0.902" style="stop-color:#B78B2C"/>
			<stop  offset="0.9908" style="stop-color:#98732B"/>
		</linearGradient>
		<path fill-rule="evenodd" clip-rule="evenodd" fill="url(#SVGID_28_)" d="M2244.891,1031.007c-1.882,0.191-3.16,0.364-4.438,0.369
			c-9.428,0.25-9.428,0.22-12.537-7.733c-6.799,2.863-13.485,6.057-20.441,8.566c-7.628,2.702-15.294,1.49-22.616-1.586
			c-8.532-3.645-13.171-10.083-13.479-19.489c-0.298-9.275,3.296-16.668,11.797-20.453c5.753-2.601,12.111-3.946,18.328-5.251
			c8.174-1.689,16.496-2.777,24.468-4.068c3.123-11.145-1.868-18.963-12.334-20.001c-3.519-0.377-7.106-0.31-10.603-0.05
			c-6.955,0.513-12.178,3.676-14.598,10.583c-0.425,1.182-0.942,2.407-1.667,4.204c-4.064-0.58-8.159-1.12-12.857-1.794
			c1.127-8.782,5.208-15.424,12.694-19.04c5.244-2.545,11.236-3.703,17.026-4.875c7.262-1.428,14.577-0.501,21.629,1.438
			c9.743,2.756,14.352,8.398,15.361,18.469c0.321,3.28,0.351,6.618,0.389,9.917c0.029,6.634-0.015,13.271,0.022,19.907
			C2241.11,1010.449,2240.685,1020.835,2244.891,1031.007z M2226.43,992.195c-7.502,1.517-14.987,3.027-22.511,4.564
			c-3.221,0.644-6.575,0.978-9.637,2.07c-5.687,1.967-8.235,5.991-8.032,11.537c0.223,5.351,3.279,9.091,8.92,10.92
			C2213.691,1027.222,2230.344,1011.806,2226.43,992.195z"/>
		<linearGradient id="SVGID_29_" gradientUnits="userSpaceOnUse" x1="2618.7534" y1="991.7524" x2="2693.1504" y2="991.7524">
			<stop  offset="0.2151" style="stop-color:#CB9A2D"/>
			<stop  offset="0.2258" style="stop-color:#CA9B32"/>
			<stop  offset="0.2943" style="stop-color:#C89F49"/>
			<stop  offset="0.3668" style="stop-color:#C6A25B"/>
			<stop  offset="0.4454" style="stop-color:#C4A465"/>
			<stop  offset="0.5413" style="stop-color:#C4A568"/>
			<stop  offset="0.6336" style="stop-color:#C6A25B"/>
			<stop  offset="0.8055" style="stop-color:#CA9C37"/>
			<stop  offset="0.8504" style="stop-color:#CB9A2D"/>
			<stop  offset="0.902" style="stop-color:#B78B2C"/>
			<stop  offset="0.9908" style="stop-color:#98732B"/>
		</linearGradient>
		<path fill-rule="evenodd" clip-rule="evenodd" fill="url(#SVGID_29_)" d="M2633.918,995.41
			c-0.896,12.501,5.783,22.74,16.198,25.798c12.363,3.67,19.925-0.278,28.674-15.28c4.109,0.47,8.397,0.922,13.433,1.479
			c-2.367,9.649-7.232,16.63-15.299,21.047c-21.675,11.916-56.117,3.474-58.016-31.301c-0.425-7.977-0.111-15.921,2.751-23.498
			c6.485-17.22,20.075-24.849,37.296-23.55c18.386,1.35,30.333,12.94,32.926,30.689c0.62,4.536,0.792,9.137,1.271,14.616
			C2672.896,995.41,2653.351,995.41,2633.918,995.41z M2678.186,983.987c-0.157-15.816-12.261-23.761-23.527-22.926
			c-11.341,0.83-20.061,10.239-20.239,22.926C2648.898,983.987,2663.393,983.987,2678.186,983.987z"/>
		<linearGradient id="SVGID_30_" gradientUnits="userSpaceOnUse" x1="3581.458" y1="991.7485" x2="3656.084" y2="991.7485">
			<stop  offset="0.2151" style="stop-color:#CB9A2D"/>
			<stop  offset="0.2258" style="stop-color:#CA9B32"/>
			<stop  offset="0.2943" style="stop-color:#C89F49"/>
			<stop  offset="0.3668" style="stop-color:#C6A25B"/>
			<stop  offset="0.4454" style="stop-color:#C4A465"/>
			<stop  offset="0.5413" style="stop-color:#C4A568"/>
			<stop  offset="0.6336" style="stop-color:#C6A25B"/>
			<stop  offset="0.8055" style="stop-color:#CA9C37"/>
			<stop  offset="0.8504" style="stop-color:#CB9A2D"/>
			<stop  offset="0.902" style="stop-color:#B78B2C"/>
			<stop  offset="0.9908" style="stop-color:#98732B"/>
		</linearGradient>
		<path fill-rule="evenodd" clip-rule="evenodd" fill="url(#SVGID_30_)" d="M3656.084,995.559c-20.71,0-40.075,0-59.403,0
			c-1.08,11.79,5.854,22.537,16.058,25.623c12.41,3.729,20.282-0.31,28.807-15.255c4.089,0.421,8.392,0.914,13.568,1.427
			c-2.741,10.915-8.614,18.396-18.19,22.565c-21.937,9.521-51.238,0.36-54.9-29.38c-1.375-11.259-0.423-22.118,4.904-32.25
			c7.268-13.858,21.514-20.368,38.053-17.751c15.859,2.508,26.543,12.67,29.262,28.21
			C3655.137,983.917,3655.419,989.199,3656.084,995.559z M3640.808,984.002c0.492-15.916-12.59-23.791-23.205-22.951
			c-11.58,0.91-20.725,10.836-20.051,22.951C3611.847,984.002,3626.103,984.002,3640.808,984.002z"/>
		<linearGradient id="SVGID_31_" gradientUnits="userSpaceOnUse" x1="3091.2456" y1="822.8735" x2="3167.2612" y2="822.8735">
			<stop  offset="0.2151" style="stop-color:#CB9A2D"/>
			<stop  offset="0.2258" style="stop-color:#CA9B32"/>
			<stop  offset="0.2943" style="stop-color:#C89F49"/>
			<stop  offset="0.3668" style="stop-color:#C6A25B"/>
			<stop  offset="0.4454" style="stop-color:#C4A465"/>
			<stop  offset="0.5413" style="stop-color:#C4A568"/>
			<stop  offset="0.6336" style="stop-color:#C6A25B"/>
			<stop  offset="0.8055" style="stop-color:#CA9C37"/>
			<stop  offset="0.8504" style="stop-color:#CB9A2D"/>
			<stop  offset="0.902" style="stop-color:#B78B2C"/>
			<stop  offset="0.9908" style="stop-color:#98732B"/>
		</linearGradient>
		<path fill-rule="evenodd" clip-rule="evenodd" fill="url(#SVGID_31_)" d="M3112.653,868.128c-2.341-4.355-4.484-8.323-7.02-13.072
			c10.393,0,19.749-0.557,29.054,0.101c10.834,0.813,13.932-3.497,17.25-11.631c5.106-12.389,4.973-25.592,1.035-38.482
			c-2.908-9.483-9.813-14.461-19.479-16.043c-5.479-0.91-10.908-0.994-16.028,0.908c-8.285,3.064-12.978,9.477-14.553,17.947
			c-0.748,3.923-0.937,8.241-0.232,12.155c1.154,6.147,4.95,8.714,11.144,8.779c10.007,0.014,19.978,0.007,30.663,0.007
			c-1.754,4.499-3.202,8.312-4.76,12.31c-1.897,0.166-3.57,0.405-5.293,0.409c-7.409,0.082-14.859,0.015-22.277,0.015
			c-10.958-0.007-18.72-6.241-20.108-17.206c-0.846-6.59-1.244-13.57-0.073-20.104c2.796-15.156,17.504-26.701,32.891-26.604
			c5.638,0.072,11.394,0.24,16.868,1.476c11.306,2.52,19.096,9.753,22.291,20.869c5.28,18.2,4.137,36.241-3.702,53.602
			c-4.477,9.829-12.559,14.697-23.498,14.566C3128.945,868.11,3121.111,868.128,3112.653,868.128z"/>
		<linearGradient id="SVGID_32_" gradientUnits="userSpaceOnUse" x1="2524.7241" y1="830.1763" x2="2642.1089" y2="830.1763">
			<stop  offset="0.2151" style="stop-color:#CB9A2D"/>
			<stop  offset="0.2258" style="stop-color:#CA9B32"/>
			<stop  offset="0.2943" style="stop-color:#C89F49"/>
			<stop  offset="0.3668" style="stop-color:#C6A25B"/>
			<stop  offset="0.4454" style="stop-color:#C4A465"/>
			<stop  offset="0.5413" style="stop-color:#C4A568"/>
			<stop  offset="0.6336" style="stop-color:#C6A25B"/>
			<stop  offset="0.8055" style="stop-color:#CA9C37"/>
			<stop  offset="0.8504" style="stop-color:#CB9A2D"/>
			<stop  offset="0.902" style="stop-color:#B78B2C"/>
			<stop  offset="0.9908" style="stop-color:#98732B"/>
		</linearGradient>
		<path fill-rule="evenodd" clip-rule="evenodd" fill="url(#SVGID_32_)" d="M2642.081,841.454c-24.029,0-47.129,0-70.535,0
			c-3.165,10.286-8.001,18.995-18.078,23.094c-9.087,3.731-18.51,4.482-28.745,1.806c0.435-3.656,0.862-7.217,1.341-11.128
			c4.251,0.409,8.082,1.015,11.914,1.088c13.053,0.145,21.158-8.048,21.18-21.099c0.023-11.984,0-24.022,0-36.007
			c0-2.218,0-4.31,0-6.803c4.162,0,7.73,0,11.944,0c0,11.968,0,23.676,0,36.238c8.315,0.255,16.043,0.147,24.472,0.079
			c0.907-11.455-0.128-22.759,0.637-34.483c4.145,0,8.135,0,12.963,0c0,11.374,0,22.596,0,34.156c7.055,0,13.293,0,20.303,0
			c0-11.315,0-22.607,0-34.248c4.386,0,7.978,0,12.55,0C2642.171,809.69,2642.081,825.071,2642.081,841.454z"/>
		<linearGradient id="SVGID_33_" gradientUnits="userSpaceOnUse" x1="3004.6157" y1="991.6528" x2="3080.3623" y2="991.6528">
			<stop  offset="0.2151" style="stop-color:#CB9A2D"/>
			<stop  offset="0.2258" style="stop-color:#CA9B32"/>
			<stop  offset="0.2943" style="stop-color:#C89F49"/>
			<stop  offset="0.3668" style="stop-color:#C6A25B"/>
			<stop  offset="0.4454" style="stop-color:#C4A465"/>
			<stop  offset="0.5413" style="stop-color:#C4A568"/>
			<stop  offset="0.6336" style="stop-color:#C6A25B"/>
			<stop  offset="0.8055" style="stop-color:#CA9C37"/>
			<stop  offset="0.8504" style="stop-color:#CB9A2D"/>
			<stop  offset="0.902" style="stop-color:#B78B2C"/>
			<stop  offset="0.9908" style="stop-color:#98732B"/>
		</linearGradient>
		<path fill-rule="evenodd" clip-rule="evenodd" fill="url(#SVGID_33_)" d="M3004.616,991.861c0.6-4.59,0.914-9.208,1.758-13.77
			c3.629-19.243,21.368-29.88,39.91-27.943c21.33,2.236,33.172,15.709,34.032,38.463c0.23,5.264-0.442,10.596-1.263,15.803
			c-3.743,24.195-33.667,36.587-55.811,23.94c-10.907-6.216-16.331-15.718-17.783-27.819c-0.351-2.854-0.351-5.736-0.545-8.639
			C3004.818,991.884,3004.736,991.884,3004.616,991.861z M3066.972,991.732c-1.24-5.975-1.755-11.098-3.377-15.812
			c-3.295-9.565-11.336-14.861-21.232-14.808c-9.854,0.035-17.759,5.572-20.913,15.289c-3.191,9.91-3.087,19.995-0.142,29.983
			c0.5,1.689,1.358,3.287,2.242,4.801c4.586,7.678,11.481,11.528,20.387,11.116c8.68-0.372,15.315-4.655,18.424-12.85
			C3064.595,1003.571,3065.574,997.197,3066.972,991.732z"/>
		<linearGradient id="SVGID_34_" gradientUnits="userSpaceOnUse" x1="3451.9189" y1="991.6685" x2="3527.6045" y2="991.6685">
			<stop  offset="0.2151" style="stop-color:#CB9A2D"/>
			<stop  offset="0.2258" style="stop-color:#CA9B32"/>
			<stop  offset="0.2943" style="stop-color:#C89F49"/>
			<stop  offset="0.3668" style="stop-color:#C6A25B"/>
			<stop  offset="0.4454" style="stop-color:#C4A465"/>
			<stop  offset="0.5413" style="stop-color:#C4A568"/>
			<stop  offset="0.6336" style="stop-color:#C6A25B"/>
			<stop  offset="0.8055" style="stop-color:#CA9C37"/>
			<stop  offset="0.8504" style="stop-color:#CB9A2D"/>
			<stop  offset="0.902" style="stop-color:#B78B2C"/>
			<stop  offset="0.9908" style="stop-color:#98732B"/>
		</linearGradient>
		<path fill-rule="evenodd" clip-rule="evenodd" fill="url(#SVGID_34_)" d="M3451.919,991.271c0.538-4.344,0.882-8.782,1.705-13.104
			c3.557-19.283,21.26-29.888,39.82-28.019c21.354,2.176,33.188,15.664,34.129,38.382c0.18,5.263-0.447,10.59-1.257,15.807
			c-3.645,23.555-31.632,35.445-52.789,25.58c-12.853-6.014-19.44-16.184-20.891-29.99c-0.3-2.854-0.313-5.715-0.425-8.62
			C3452.099,991.306,3452.011,991.294,3451.919,991.271z M3465.756,993.311c1.331,5.182,2.063,11.189,4.424,16.549
			c3.764,8.372,10.967,12.578,20.165,12.487c9.287-0.122,15.986-4.7,19.553-13.309c4.543-10.834,4.879-21.94,1.023-33.024
			c-3.415-9.776-11.544-15.117-21.832-14.901c-9.721,0.175-17.564,5.906-20.495,15.748
			C3467.101,981.9,3466.757,987.264,3465.756,993.311z"/>
		<linearGradient id="SVGID_35_" gradientUnits="userSpaceOnUse" x1="3096.0396" y1="990.5044" x2="3161.6572" y2="990.5044">
			<stop  offset="0.2151" style="stop-color:#CB9A2D"/>
			<stop  offset="0.2258" style="stop-color:#CA9B32"/>
			<stop  offset="0.2943" style="stop-color:#C89F49"/>
			<stop  offset="0.3668" style="stop-color:#C6A25B"/>
			<stop  offset="0.4454" style="stop-color:#C4A465"/>
			<stop  offset="0.5413" style="stop-color:#C4A568"/>
			<stop  offset="0.6336" style="stop-color:#C6A25B"/>
			<stop  offset="0.8055" style="stop-color:#CA9C37"/>
			<stop  offset="0.8504" style="stop-color:#CB9A2D"/>
			<stop  offset="0.902" style="stop-color:#B78B2C"/>
			<stop  offset="0.9908" style="stop-color:#98732B"/>
		</linearGradient>
		<path fill-rule="evenodd" clip-rule="evenodd" fill="url(#SVGID_35_)" d="M3161.639,1031.04c-4.698,0-8.792,0-13.581,0
			c-0.112-2.604-0.338-4.957-0.338-7.301c-0.036-13.523,0.137-26.979-0.096-40.452c-0.082-4.407-0.628-8.796-1.614-13.076
			c-1.09-4.707-4.707-7.636-9.243-8.569c-12.333-2.595-24.355,3.254-25.789,16.048c-0.359,3.275-0.77,6.56-0.81,9.889
			c-0.095,12.141-0.029,24.308-0.029,36.463c0,2.185,0,4.318,0,6.917c-4.72,0-8.83,0-12.939,0
			c-1.255-4.795-1.652-69.249-0.388-78.412c3.75,0,7.606,0,11.736,0c0.143,2.766,0.307,5.329,0.502,8.848
			c1.666-1.455,2.8-2.347,3.788-3.353c9.988-10.03,27.65-10.186,38.797-3.363c4.534,2.771,7.411,6.947,8.831,12.015
			c0.583,2.103,1.091,4.344,1.151,6.529C3161.692,992.218,3161.639,1011.211,3161.639,1031.04z"/>
		<linearGradient id="SVGID_36_" gradientUnits="userSpaceOnUse" x1="2760.8467" y1="990.4146" x2="2826.0557" y2="990.4146">
			<stop  offset="0.2151" style="stop-color:#CB9A2D"/>
			<stop  offset="0.2258" style="stop-color:#CA9B32"/>
			<stop  offset="0.2943" style="stop-color:#C89F49"/>
			<stop  offset="0.3668" style="stop-color:#C6A25B"/>
			<stop  offset="0.4454" style="stop-color:#C4A465"/>
			<stop  offset="0.5413" style="stop-color:#C4A568"/>
			<stop  offset="0.6336" style="stop-color:#C6A25B"/>
			<stop  offset="0.8055" style="stop-color:#CA9C37"/>
			<stop  offset="0.8504" style="stop-color:#CB9A2D"/>
			<stop  offset="0.902" style="stop-color:#B78B2C"/>
			<stop  offset="0.9908" style="stop-color:#98732B"/>
		</linearGradient>
		<path fill-rule="evenodd" clip-rule="evenodd" fill="url(#SVGID_36_)" d="M2825.629,1030.958c-4.639,0-8.74,0-13.694,0
			c0-2.768,0-5.125,0-7.479c0-13.519,0.098-27.001-0.082-40.489c-0.015-4.147-0.5-8.398-1.509-12.431
			c-1.441-5.751-5.805-8.649-11.588-9.325c-10.266-1.177-22.1,2.73-23.878,17.98c-0.418,3.519-0.478,7.098-0.493,10.585
			c-0.083,13.089-0.083,26.119-0.098,39.145c0,0.473-0.171,0.891-0.425,1.888c-4.109,0-8.375,0-13.015,0c0-26.168,0-52.13,0-78.345
			c1.524-0.158,2.795-0.334,4.108-0.344c2.377-0.077,4.805-0.021,7.741-0.021c0.187,3.055,0.41,5.738,0.605,9.346
			c1.345-1.153,2.009-1.617,2.585-2.204c10.503-10.566,22.869-11.399,36.123-6.545c7.075,2.615,11.506,8.003,12.955,15.559
			c0.493,2.358,0.987,4.793,0.987,7.195c0.096,17.482,0.096,34.947,0.104,52.418
			C2826.056,1028.74,2825.861,1029.584,2825.629,1030.958z"/>
		<linearGradient id="SVGID_37_" gradientUnits="userSpaceOnUse" x1="2494.7285" y1="990.6636" x2="2560.0728" y2="990.6636">
			<stop  offset="0.2151" style="stop-color:#CB9A2D"/>
			<stop  offset="0.2258" style="stop-color:#CA9B32"/>
			<stop  offset="0.2943" style="stop-color:#C89F49"/>
			<stop  offset="0.3668" style="stop-color:#C6A25B"/>
			<stop  offset="0.4454" style="stop-color:#C4A465"/>
			<stop  offset="0.5413" style="stop-color:#C4A568"/>
			<stop  offset="0.6336" style="stop-color:#C6A25B"/>
			<stop  offset="0.8055" style="stop-color:#CA9C37"/>
			<stop  offset="0.8504" style="stop-color:#CB9A2D"/>
			<stop  offset="0.902" style="stop-color:#B78B2C"/>
			<stop  offset="0.9908" style="stop-color:#98732B"/>
		</linearGradient>
		<path fill-rule="evenodd" clip-rule="evenodd" fill="url(#SVGID_37_)" d="M2506.602,952.123c0.291,3.306,0.484,5.67,0.731,8.845
			c1.441-1.16,2.511-1.759,3.302-2.594c9.743-10.076,26.53-10.7,38.179-4.284c6.462,3.579,9.906,9.399,10.505,16.708
			c0.463,5.472,0.664,11.011,0.694,16.551c0.09,12.157,0.052,24.338,0.052,36.473c0,2.185,0,4.369,0,7.137
			c-2.718,0.169-4.833,0.342-6.94,0.426c-1.957,0.08-3.952,0-6.723,0c-0.121-2.644-0.36-4.964-0.36-7.261
			c-0.052-13.751,0.083-27.45-0.09-41.142c-0.052-3.951-0.492-8.003-1.42-11.838c-1.485-5.977-5.789-9.182-11.9-9.914
			c-12.529-1.422-23.698,5.213-23.931,20.002c-0.202,14.188-0.216,28.311-0.352,42.491c-0.007,2.36-0.225,4.714-0.335,7.315
			c-4.723,0-8.824,0-13.285,0c0-26.374,0-52.329,0-78.632c1.599-0.097,2.862-0.263,4.132-0.263
			C2501.273,952.073,2503.671,952.123,2506.602,952.123z"/>
		<linearGradient id="SVGID_38_" gradientUnits="userSpaceOnUse" x1="2463.6943" y1="795.3394" x2="2519.2139" y2="795.3394">
			<stop  offset="0.2151" style="stop-color:#CB9A2D"/>
			<stop  offset="0.2258" style="stop-color:#CA9B32"/>
			<stop  offset="0.2943" style="stop-color:#C89F49"/>
			<stop  offset="0.3668" style="stop-color:#C6A25B"/>
			<stop  offset="0.4454" style="stop-color:#C4A465"/>
			<stop  offset="0.5413" style="stop-color:#C4A568"/>
			<stop  offset="0.6336" style="stop-color:#C6A25B"/>
			<stop  offset="0.8055" style="stop-color:#CA9C37"/>
			<stop  offset="0.8504" style="stop-color:#CB9A2D"/>
			<stop  offset="0.902" style="stop-color:#B78B2C"/>
			<stop  offset="0.9908" style="stop-color:#98732B"/>
		</linearGradient>
		<path fill-rule="evenodd" clip-rule="evenodd" fill="url(#SVGID_38_)" d="M2463.694,749.029c3.824,0,7.394,0,11.554,0
			c0,26.435,0,52.595,0,79.289c5.398,0.821,10.369,0.33,15.281,0.473c5.029,0.025,10.037,0.007,15.781,0.007
			c0.832-11.46-0.09-22.747,0.578-34.552c4.086,0,8.06,0,12.326,0c0,15.612,0,30.825,0,46.038c-4.462,1.558-47.73,1.904-55.52,0.409
			C2463.694,810.342,2463.694,779.854,2463.694,749.029z"/>
		<linearGradient id="SVGID_39_" gradientUnits="userSpaceOnUse" x1="2323.5" y1="991.7739" x2="2395.7734" y2="991.7739">
			<stop  offset="0.2151" style="stop-color:#CB9A2D"/>
			<stop  offset="0.2258" style="stop-color:#CA9B32"/>
			<stop  offset="0.2943" style="stop-color:#C89F49"/>
			<stop  offset="0.3668" style="stop-color:#C6A25B"/>
			<stop  offset="0.4454" style="stop-color:#C4A465"/>
			<stop  offset="0.5413" style="stop-color:#C4A568"/>
			<stop  offset="0.6336" style="stop-color:#C6A25B"/>
			<stop  offset="0.8055" style="stop-color:#CA9C37"/>
			<stop  offset="0.8504" style="stop-color:#CB9A2D"/>
			<stop  offset="0.902" style="stop-color:#B78B2C"/>
			<stop  offset="0.9908" style="stop-color:#98732B"/>
		</linearGradient>
		<path fill-rule="evenodd" clip-rule="evenodd" fill="url(#SVGID_39_)" d="M2323.578,952.329c4.416,0,8.793,0,13.859,0
			c7.247,20.078,14.523,40.322,22.085,61.297c7.643-20.759,15.047-40.964,22.496-61.241c4.595,0,8.964,0,13.755,0
			c-0.337,1.364-0.509,2.622-0.973,3.79c-8.936,23.506-17.878,46.969-26.918,70.409c-0.673,1.688-2.018,4.28-3.273,4.454
			c-3.617,0.439-7.397,0.002-11.072-0.414c-0.62-0.042-1.256-1.687-1.622-2.686c-9.473-24.458-18.901-48.93-28.309-73.432
			C2323.384,953.97,2323.578,953.238,2323.578,952.329z"/>
		<linearGradient id="SVGID_40_" gradientUnits="userSpaceOnUse" x1="3536.2539" y1="978.3833" x2="3574.8154" y2="978.3833">
			<stop  offset="0.2151" style="stop-color:#CB9A2D"/>
			<stop  offset="0.2258" style="stop-color:#CA9B32"/>
			<stop  offset="0.2943" style="stop-color:#C89F49"/>
			<stop  offset="0.3668" style="stop-color:#C6A25B"/>
			<stop  offset="0.4454" style="stop-color:#C4A465"/>
			<stop  offset="0.5413" style="stop-color:#C4A568"/>
			<stop  offset="0.6336" style="stop-color:#C6A25B"/>
			<stop  offset="0.8055" style="stop-color:#CA9C37"/>
			<stop  offset="0.8504" style="stop-color:#CB9A2D"/>
			<stop  offset="0.902" style="stop-color:#B78B2C"/>
			<stop  offset="0.9908" style="stop-color:#98732B"/>
		</linearGradient>
		<path fill-rule="evenodd" clip-rule="evenodd" fill="url(#SVGID_40_)" d="M3559.386,952.165c5.139,0,9.018,0,13.299,0
			c0,3.514,0,6.511,0,10.246c-3.947,0-8,0-12.38,0c-0.3,2.178-0.65,3.666-0.674,5.088c-0.065,13.896-0.021,27.834,0,41.753
			c0,1.534,0.085,3.1,0.286,4.617c0.592,3.975,2.009,5.409,5.953,5.802c2.168,0.194,4.349,0.03,7.113,0.03
			c0.611,3.668,1.21,7.278,1.832,10.937c-6.412,2.508-12.484,2.548-18.537,0.91c-5.08-1.294-8.646-4.452-9.641-9.783
			c-0.612-3.488-1.029-6.967-1.045-10.492c-0.133-13.699-0.072-27.394-0.072-41.076c0-2.171,0-4.354,0-6.976
			c-3.201-0.302-5.949-0.503-9.267-0.816c0-3.188,0-6.307,0-9.917c2.751-0.196,5.567-0.421,8.878-0.678c0-6.377,0-12.68,0-19.309
			c4.602-2.688,8.89-5.217,14.254-8.401C3559.386,933.922,3559.386,942.584,3559.386,952.165z"/>
		<linearGradient id="SVGID_41_" gradientUnits="userSpaceOnUse" x1="2925.7734" y1="978.3892" x2="2964.2881" y2="978.3892">
			<stop  offset="0.2151" style="stop-color:#CB9A2D"/>
			<stop  offset="0.2258" style="stop-color:#CA9B32"/>
			<stop  offset="0.2943" style="stop-color:#C89F49"/>
			<stop  offset="0.3668" style="stop-color:#C6A25B"/>
			<stop  offset="0.4454" style="stop-color:#C4A465"/>
			<stop  offset="0.5413" style="stop-color:#C4A568"/>
			<stop  offset="0.6336" style="stop-color:#C6A25B"/>
			<stop  offset="0.8055" style="stop-color:#CA9C37"/>
			<stop  offset="0.8504" style="stop-color:#CB9A2D"/>
			<stop  offset="0.902" style="stop-color:#B78B2C"/>
			<stop  offset="0.9908" style="stop-color:#98732B"/>
		</linearGradient>
		<path fill-rule="evenodd" clip-rule="evenodd" fill="url(#SVGID_41_)" d="M2962.562,1019.743c0.59,3.904,1.165,7.353,1.727,10.895
			c-6.518,2.667-12.813,2.548-19.044,0.746c-4.775-1.348-8.211-4.484-9.072-9.577c-0.656-3.656-1.074-7.411-1.083-11.128
			c-0.157-13.481-0.074-26.944-0.082-40.412c0-2.18,0-4.344,0-7.046c-3.123-0.302-5.909-0.503-9.233-0.821c0-3.135,0-6.29,0-9.912
			c2.681-0.178,5.462-0.421,8.869-0.678c0-6.298,0-12.616,0-19.234c4.57-2.763,8.845-5.296,14.194-8.491c0,9.76,0,18.466,0,27.823
			c4.789,0,8.86,0,13.381,0c0,3.696,0,6.717,0,10.492c-3.869,0-7.971,0-12.336,0c-0.328,2.115-0.752,3.586-0.752,5.044
			c-0.009,13.914-0.009,27.81-0.009,41.745c0,1.324,0.082,2.618,0.247,3.956c0.523,4.952,2.108,6.386,7.232,6.56
			C2958.362,1019.783,2960.118,1019.743,2962.562,1019.743z"/>
		<linearGradient id="SVGID_42_" gradientUnits="userSpaceOnUse" x1="2572.6694" y1="978.3521" x2="2611.2363" y2="978.3521">
			<stop  offset="0.2151" style="stop-color:#CB9A2D"/>
			<stop  offset="0.2258" style="stop-color:#CA9B32"/>
			<stop  offset="0.2943" style="stop-color:#C89F49"/>
			<stop  offset="0.3668" style="stop-color:#C6A25B"/>
			<stop  offset="0.4454" style="stop-color:#C4A465"/>
			<stop  offset="0.5413" style="stop-color:#C4A568"/>
			<stop  offset="0.6336" style="stop-color:#C6A25B"/>
			<stop  offset="0.8055" style="stop-color:#CA9C37"/>
			<stop  offset="0.8504" style="stop-color:#CB9A2D"/>
			<stop  offset="0.902" style="stop-color:#B78B2C"/>
			<stop  offset="0.9908" style="stop-color:#98732B"/>
		</linearGradient>
		<path fill-rule="evenodd" clip-rule="evenodd" fill="url(#SVGID_42_)" d="M2581.993,962.982c-3.683-0.189-6.291-0.321-9.323-0.484
			c0-3.393,0-6.564,0-10.095c2.989-0.194,5.79-0.355,9.084-0.58c0-6.553,0-12.856,0-19.421c4.609-2.679,8.891-5.188,14.271-8.303
			c0,9.905,0,18.636,0,27.687c4.796,0.201,8.898,0.423,13.269,0.62c0,3.415,0,6.389,0,10.169c-4.191,0-8.277,0-12.693,0
			c-0.209,2.185-0.485,3.663-0.494,5.125c-0.007,13.694,0,27.382,0,41.081c0,1.334,0.045,2.679,0.179,3.951
			c0.53,5.446,2.085,6.81,7.576,6.972c1.733,0.07,3.445,0.039,5.611,0.039c0.59,3.79,1.173,7.395,1.764,11.044
			c-6.061,2.068-11.655,2.323-17.393,1.014c-5.977-1.351-9.915-4.663-10.894-10.871c-0.53-3.493-0.866-7.022-0.911-10.551
			c-0.112-13.455-0.038-26.899-0.045-40.404C2581.993,967.833,2581.993,965.676,2581.993,962.982z"/>
		<linearGradient id="SVGID_43_" gradientUnits="userSpaceOnUse" x1="2455.2656" y1="976.9683" x2="2469.7827" y2="976.9683">
			<stop  offset="0.2151" style="stop-color:#CB9A2D"/>
			<stop  offset="0.2258" style="stop-color:#CA9B32"/>
			<stop  offset="0.2943" style="stop-color:#C89F49"/>
			<stop  offset="0.3668" style="stop-color:#C6A25B"/>
			<stop  offset="0.4454" style="stop-color:#C4A465"/>
			<stop  offset="0.5413" style="stop-color:#C4A568"/>
			<stop  offset="0.6336" style="stop-color:#C6A25B"/>
			<stop  offset="0.8055" style="stop-color:#CA9C37"/>
			<stop  offset="0.8504" style="stop-color:#CB9A2D"/>
			<stop  offset="0.902" style="stop-color:#B78B2C"/>
			<stop  offset="0.9908" style="stop-color:#98732B"/>
		</linearGradient>
		<path fill-rule="evenodd" clip-rule="evenodd" fill="url(#SVGID_43_)" d="M2455.266,922.424c5.125,0,9.646,0,14.517,0
			c0,36.251,0,71.958,0,108.033c-4.602,1.67-9.317,0.973-14.517,0.5C2455.266,994.832,2455.266,958.951,2455.266,922.424z"/>
		<linearGradient id="SVGID_44_" gradientUnits="userSpaceOnUse" x1="3672.3867" y1="976.7134" x2="3686.2363" y2="976.7134">
			<stop  offset="0.2151" style="stop-color:#CB9A2D"/>
			<stop  offset="0.2258" style="stop-color:#CA9B32"/>
			<stop  offset="0.2943" style="stop-color:#C89F49"/>
			<stop  offset="0.3668" style="stop-color:#C6A25B"/>
			<stop  offset="0.4454" style="stop-color:#C4A465"/>
			<stop  offset="0.5413" style="stop-color:#C4A568"/>
			<stop  offset="0.6336" style="stop-color:#C6A25B"/>
			<stop  offset="0.8055" style="stop-color:#CA9C37"/>
			<stop  offset="0.8504" style="stop-color:#CB9A2D"/>
			<stop  offset="0.902" style="stop-color:#B78B2C"/>
			<stop  offset="0.9908" style="stop-color:#98732B"/>
		</linearGradient>
		<path fill-rule="evenodd" clip-rule="evenodd" fill="url(#SVGID_44_)" d="M3685.529,1031.014c-4.506,0-8.583,0-13.143,0
			c0-36.302,0-72.22,0-108.602c4.431,0,8.524,0,12.576,0C3686.257,927.284,3686.765,1019.02,3685.529,1031.014z"/>
		<linearGradient id="SVGID_45_" gradientUnits="userSpaceOnUse" x1="2262.21" y1="976.7065" x2="2275.9189" y2="976.7065">
			<stop  offset="0.2151" style="stop-color:#CB9A2D"/>
			<stop  offset="0.2258" style="stop-color:#CA9B32"/>
			<stop  offset="0.2943" style="stop-color:#C89F49"/>
			<stop  offset="0.3668" style="stop-color:#C6A25B"/>
			<stop  offset="0.4454" style="stop-color:#C4A465"/>
			<stop  offset="0.5413" style="stop-color:#C4A568"/>
			<stop  offset="0.6336" style="stop-color:#C6A25B"/>
			<stop  offset="0.8055" style="stop-color:#CA9C37"/>
			<stop  offset="0.8504" style="stop-color:#CB9A2D"/>
			<stop  offset="0.902" style="stop-color:#B78B2C"/>
			<stop  offset="0.9908" style="stop-color:#98732B"/>
		</linearGradient>
		<path fill-rule="evenodd" clip-rule="evenodd" fill="url(#SVGID_45_)" d="M2262.21,1030.843c0-36.267,0-71.972,0-108.273
			c4.244,0,8.271,0,12.349,0c1.465,4.389,1.927,99.573,0.478,108.273C2270.854,1030.843,2266.646,1030.843,2262.21,1030.843z"/>
		<linearGradient id="SVGID_46_" gradientUnits="userSpaceOnUse" x1="3268.2163" y1="976.7065" x2="3281.8979" y2="976.7065">
			<stop  offset="0.2151" style="stop-color:#CB9A2D"/>
			<stop  offset="0.2258" style="stop-color:#CA9B32"/>
			<stop  offset="0.2943" style="stop-color:#C89F49"/>
			<stop  offset="0.3668" style="stop-color:#C6A25B"/>
			<stop  offset="0.4454" style="stop-color:#C4A465"/>
			<stop  offset="0.5413" style="stop-color:#C4A568"/>
			<stop  offset="0.6336" style="stop-color:#C6A25B"/>
			<stop  offset="0.8055" style="stop-color:#CA9C37"/>
			<stop  offset="0.8504" style="stop-color:#CB9A2D"/>
			<stop  offset="0.902" style="stop-color:#B78B2C"/>
			<stop  offset="0.9908" style="stop-color:#98732B"/>
		</linearGradient>
		<path fill-rule="evenodd" clip-rule="evenodd" fill="url(#SVGID_46_)" d="M3268.216,1030.843c0-36.267,0-71.972,0-108.273
			c4.208,0,8.249,0,12.358,0c1.435,4.389,1.884,99.573,0.435,108.273C3276.823,1030.843,3272.624,1030.843,3268.216,1030.843z"/>
		<linearGradient id="SVGID_47_" gradientUnits="userSpaceOnUse" x1="2708.6416" y1="990.481" x2="2752.5391" y2="990.481">
			<stop  offset="0.2151" style="stop-color:#CB9A2D"/>
			<stop  offset="0.2258" style="stop-color:#CA9B32"/>
			<stop  offset="0.2943" style="stop-color:#C89F49"/>
			<stop  offset="0.3668" style="stop-color:#C6A25B"/>
			<stop  offset="0.4454" style="stop-color:#C4A465"/>
			<stop  offset="0.5413" style="stop-color:#C4A568"/>
			<stop  offset="0.6336" style="stop-color:#C6A25B"/>
			<stop  offset="0.8055" style="stop-color:#CA9C37"/>
			<stop  offset="0.8504" style="stop-color:#CB9A2D"/>
			<stop  offset="0.902" style="stop-color:#B78B2C"/>
			<stop  offset="0.9908" style="stop-color:#98732B"/>
		</linearGradient>
		<path fill-rule="evenodd" clip-rule="evenodd" fill="url(#SVGID_47_)" d="M2709.43,952.123c2.548,0,4.723-0.057,6.904,0.021
			c1.509,0.01,3.025,0.174,4.781,0.316c0.172,2.805,0.337,5.415,0.523,9.195c4.296-4.807,7.457-10.01,13.672-11.212
			c6.224-1.23,11.618,0.451,17.229,4.114c-1.495,3.991-2.862,7.854-4.363,11.885c-2.443-0.677-4.296-1.212-6.209-1.689
			c-7.075-1.764-13.126,0.57-15.727,7.362c-2.025,5.216-3.183,11.039-3.43,16.67c-0.508,11.675-0.157,23.409-0.165,35.118
			c0,2.173,0,4.357,0,7.016c-4.564,0-8.65,0-12.692,0C2708.593,1026.083,2708.086,963.751,2709.43,952.123z"/>
		<linearGradient id="SVGID_48_" gradientUnits="userSpaceOnUse" x1="2975.6582" y1="991.6616" x2="2989.2964" y2="991.6616">
			<stop  offset="0.2151" style="stop-color:#CB9A2D"/>
			<stop  offset="0.2258" style="stop-color:#CA9B32"/>
			<stop  offset="0.2943" style="stop-color:#C89F49"/>
			<stop  offset="0.3668" style="stop-color:#C6A25B"/>
			<stop  offset="0.4454" style="stop-color:#C4A465"/>
			<stop  offset="0.5413" style="stop-color:#C4A568"/>
			<stop  offset="0.6336" style="stop-color:#C6A25B"/>
			<stop  offset="0.8055" style="stop-color:#CA9C37"/>
			<stop  offset="0.8504" style="stop-color:#CB9A2D"/>
			<stop  offset="0.902" style="stop-color:#B78B2C"/>
			<stop  offset="0.9908" style="stop-color:#98732B"/>
		</linearGradient>
		<path fill-rule="evenodd" clip-rule="evenodd" fill="url(#SVGID_48_)" d="M2975.658,952.48c4.35,0,8.465,0,13.449,0
			c0.373,25.885,0.06,51.84,0.165,78.363c-4.642,0-8.9,0-13.614,0C2975.658,1004.727,2975.658,978.779,2975.658,952.48z"/>
		<linearGradient id="SVGID_49_" gradientUnits="userSpaceOnUse" x1="3069.062" y1="795.0933" x2="3080.376" y2="795.0933">
			<stop  offset="0.2151" style="stop-color:#CB9A2D"/>
			<stop  offset="0.2258" style="stop-color:#CA9B32"/>
			<stop  offset="0.2943" style="stop-color:#C89F49"/>
			<stop  offset="0.3668" style="stop-color:#C6A25B"/>
			<stop  offset="0.4454" style="stop-color:#C4A465"/>
			<stop  offset="0.5413" style="stop-color:#C4A568"/>
			<stop  offset="0.6336" style="stop-color:#C6A25B"/>
			<stop  offset="0.8055" style="stop-color:#CA9C37"/>
			<stop  offset="0.8504" style="stop-color:#CB9A2D"/>
			<stop  offset="0.902" style="stop-color:#B78B2C"/>
			<stop  offset="0.9908" style="stop-color:#98732B"/>
		</linearGradient>
		<path fill-rule="evenodd" clip-rule="evenodd" fill="url(#SVGID_49_)" d="M3080.376,749.091c0,30.672,0,61.1,0,92.004
			c-3.823,0-7.385,0-11.314,0c0-30.753,0-61.229,0-92.004C3072.833,749.091,3076.403,749.091,3080.376,749.091z"/>
		<linearGradient id="SVGID_50_" gradientUnits="userSpaceOnUse" x1="3178.0664" y1="794.9858" x2="3189.2686" y2="794.9858">
			<stop  offset="0.2151" style="stop-color:#CB9A2D"/>
			<stop  offset="0.2258" style="stop-color:#CA9B32"/>
			<stop  offset="0.2943" style="stop-color:#C89F49"/>
			<stop  offset="0.3668" style="stop-color:#C6A25B"/>
			<stop  offset="0.4454" style="stop-color:#C4A465"/>
			<stop  offset="0.5413" style="stop-color:#C4A568"/>
			<stop  offset="0.6336" style="stop-color:#C6A25B"/>
			<stop  offset="0.8055" style="stop-color:#CA9C37"/>
			<stop  offset="0.8504" style="stop-color:#CB9A2D"/>
			<stop  offset="0.902" style="stop-color:#B78B2C"/>
			<stop  offset="0.9908" style="stop-color:#98732B"/>
		</linearGradient>
		<path fill-rule="evenodd" clip-rule="evenodd" fill="url(#SVGID_50_)" d="M3178.066,748.947c3.938,0,7.372,0,11.202,0
			c0,30.671,0,61.146,0,92.078c-3.607,0-7.161,0-11.202,0C3178.066,810.436,3178.066,780.015,3178.066,748.947z"/>
		<linearGradient id="SVGID_51_" gradientUnits="userSpaceOnUse" x1="2655.5508" y1="795.1196" x2="2667.4229" y2="795.1196">
			<stop  offset="0.2151" style="stop-color:#CB9A2D"/>
			<stop  offset="0.2258" style="stop-color:#CA9B32"/>
			<stop  offset="0.2943" style="stop-color:#C89F49"/>
			<stop  offset="0.3668" style="stop-color:#C6A25B"/>
			<stop  offset="0.4454" style="stop-color:#C4A465"/>
			<stop  offset="0.5413" style="stop-color:#C4A568"/>
			<stop  offset="0.6336" style="stop-color:#C6A25B"/>
			<stop  offset="0.8055" style="stop-color:#CA9C37"/>
			<stop  offset="0.8504" style="stop-color:#CB9A2D"/>
			<stop  offset="0.902" style="stop-color:#B78B2C"/>
			<stop  offset="0.9908" style="stop-color:#98732B"/>
		</linearGradient>
		<path fill-rule="evenodd" clip-rule="evenodd" fill="url(#SVGID_51_)" d="M2667.423,841.117c-1.566,0.159-2.819,0.337-4.07,0.399
			c-2.161,0.082-4.313,0.008-6.299,0.008c-1.506-5.414-2.062-77.131-0.816-92.495c1.792-0.092,3.637-0.265,5.534-0.337
			c1.701-0.017,3.44-0.005,5.652-0.005C2667.423,779.51,2667.423,809.933,2667.423,841.117z"/>
		<linearGradient id="SVGID_52_" gradientUnits="userSpaceOnUse" x1="2296.293" y1="991.5962" x2="2310.4199" y2="991.5962">
			<stop  offset="0.2151" style="stop-color:#CB9A2D"/>
			<stop  offset="0.2258" style="stop-color:#CA9B32"/>
			<stop  offset="0.2943" style="stop-color:#C89F49"/>
			<stop  offset="0.3668" style="stop-color:#C6A25B"/>
			<stop  offset="0.4454" style="stop-color:#C4A465"/>
			<stop  offset="0.5413" style="stop-color:#C4A568"/>
			<stop  offset="0.6336" style="stop-color:#C6A25B"/>
			<stop  offset="0.8055" style="stop-color:#CA9C37"/>
			<stop  offset="0.8504" style="stop-color:#CB9A2D"/>
			<stop  offset="0.902" style="stop-color:#B78B2C"/>
			<stop  offset="0.9908" style="stop-color:#98732B"/>
		</linearGradient>
		<path fill-rule="evenodd" clip-rule="evenodd" fill="url(#SVGID_52_)" d="M2297.055,952.324c4.303,0,8.226,0,12.096,0
			c1.345,4.838,1.785,68.858,0.508,78.545c-3.997,0-8.046,0-12.096,0C2296.248,1026.136,2295.755,964.329,2297.055,952.324z"/>
		<linearGradient id="SVGID_53_" gradientUnits="userSpaceOnUse" x1="2975.7393" y1="929.646" x2="2988.8604" y2="929.646">
			<stop  offset="0.2151" style="stop-color:#CB9A2D"/>
			<stop  offset="0.2258" style="stop-color:#CA9B32"/>
			<stop  offset="0.2943" style="stop-color:#C89F49"/>
			<stop  offset="0.3668" style="stop-color:#C6A25B"/>
			<stop  offset="0.4454" style="stop-color:#C4A465"/>
			<stop  offset="0.5413" style="stop-color:#C4A568"/>
			<stop  offset="0.6336" style="stop-color:#C6A25B"/>
			<stop  offset="0.8055" style="stop-color:#CA9C37"/>
			<stop  offset="0.8504" style="stop-color:#CB9A2D"/>
			<stop  offset="0.902" style="stop-color:#B78B2C"/>
			<stop  offset="0.9908" style="stop-color:#98732B"/>
		</linearGradient>
		<path fill-rule="evenodd" clip-rule="evenodd" fill="url(#SVGID_53_)" d="M2975.739,922.342c4.627,0,8.675,0,13.121,0
			c0,4.941,0,9.477,0,14.607c-4.08,0-8.323,0-13.121,0C2975.739,932.472,2975.739,927.784,2975.739,922.342z"/>
		<linearGradient id="SVGID_54_" gradientUnits="userSpaceOnUse" x1="2651.4863" y1="859.4634" x2="2668.2188" y2="859.4634">
			<stop  offset="0.2151" style="stop-color:#CB9A2D"/>
			<stop  offset="0.2258" style="stop-color:#CA9B32"/>
			<stop  offset="0.2943" style="stop-color:#C89F49"/>
			<stop  offset="0.3668" style="stop-color:#C6A25B"/>
			<stop  offset="0.4454" style="stop-color:#C4A465"/>
			<stop  offset="0.5413" style="stop-color:#C4A568"/>
			<stop  offset="0.6336" style="stop-color:#C6A25B"/>
			<stop  offset="0.8055" style="stop-color:#CA9C37"/>
			<stop  offset="0.8504" style="stop-color:#CB9A2D"/>
			<stop  offset="0.902" style="stop-color:#B78B2C"/>
			<stop  offset="0.9908" style="stop-color:#98732B"/>
		</linearGradient>
		<path fill-rule="evenodd" clip-rule="evenodd" fill="url(#SVGID_54_)" d="M2667.79,863.693c0.976,3.423,0.414,5.346-2.991,5.411
			c-4.319,0-8.607,0-12.828,0c-0.885-5.06-0.885-5.06,2.856-6.959c0.249-3.498-0.082-7.486,3.622-10.237
			c2.744-2.065,5.413-2.479,8.99-1.75c0.097,1.266,0.231,2.669,0.351,4.333c-3.088,0.666-6.598,0.647-6.433,4.984
			C2661.53,863.624,2665.022,863.027,2667.79,863.693z"/>
		<linearGradient id="SVGID_55_" gradientUnits="userSpaceOnUse" x1="2296.8984" y1="929.5962" x2="2309.8462" y2="929.5962">
			<stop  offset="0.2151" style="stop-color:#CB9A2D"/>
			<stop  offset="0.2258" style="stop-color:#CA9B32"/>
			<stop  offset="0.2943" style="stop-color:#C89F49"/>
			<stop  offset="0.3668" style="stop-color:#C6A25B"/>
			<stop  offset="0.4454" style="stop-color:#C4A465"/>
			<stop  offset="0.5413" style="stop-color:#C4A568"/>
			<stop  offset="0.6336" style="stop-color:#C6A25B"/>
			<stop  offset="0.8055" style="stop-color:#CA9C37"/>
			<stop  offset="0.8504" style="stop-color:#CB9A2D"/>
			<stop  offset="0.902" style="stop-color:#B78B2C"/>
			<stop  offset="0.9908" style="stop-color:#98732B"/>
		</linearGradient>
		<path fill-rule="evenodd" clip-rule="evenodd" fill="url(#SVGID_55_)" d="M2296.898,922.406c2.249-0.164,4.184-0.407,6.111-0.412
			c2.137,0,4.296,0.164,6.836,0.263c0,5.19,0,9.896,0,14.941c-4.393,0-8.488,0-12.948,0
			C2296.898,932.212,2296.898,927.532,2296.898,922.406z"/>
		<linearGradient id="SVGID_56_" gradientUnits="userSpaceOnUse" x1="3173.2314" y1="730.8882" x2="3190.5117" y2="730.8882">
			<stop  offset="0.2151" style="stop-color:#CB9A2D"/>
			<stop  offset="0.2258" style="stop-color:#CA9B32"/>
			<stop  offset="0.2943" style="stop-color:#C89F49"/>
			<stop  offset="0.3668" style="stop-color:#C6A25B"/>
			<stop  offset="0.4454" style="stop-color:#C4A465"/>
			<stop  offset="0.5413" style="stop-color:#C4A568"/>
			<stop  offset="0.6336" style="stop-color:#C6A25B"/>
			<stop  offset="0.8055" style="stop-color:#CA9C37"/>
			<stop  offset="0.8504" style="stop-color:#CB9A2D"/>
			<stop  offset="0.902" style="stop-color:#B78B2C"/>
			<stop  offset="0.9908" style="stop-color:#98732B"/>
		</linearGradient>
		<path fill-rule="evenodd" clip-rule="evenodd" fill="url(#SVGID_56_)" d="M3189.358,721.331c0,1.605,0,2.908,0,4.342
			c-2.82,1.069-6.55,1.477-6.089,5.961c0.241,2.021,1.098,2.501,6.826,3.683c1.054,3.216,0.172,5.069-3.421,5.071
			c-4.123,0.07-8.216,0.061-12.609,0.061c-0.7-2.896-2.115-5.224,1.799-6.55c0.696-0.26,1.109-2.092,1.275-3.257
			C3178.284,723.577,3181.096,721.25,3189.358,721.331z"/>
		<linearGradient id="SVGID_57_" gradientUnits="userSpaceOnUse" x1="2576.25" y1="775.6353" x2="2590.8818" y2="775.6353">
			<stop  offset="0.2151" style="stop-color:#CB9A2D"/>
			<stop  offset="0.2258" style="stop-color:#CA9B32"/>
			<stop  offset="0.2943" style="stop-color:#C89F49"/>
			<stop  offset="0.3668" style="stop-color:#C6A25B"/>
			<stop  offset="0.4454" style="stop-color:#C4A465"/>
			<stop  offset="0.5413" style="stop-color:#C4A568"/>
			<stop  offset="0.6336" style="stop-color:#C6A25B"/>
			<stop  offset="0.8055" style="stop-color:#CA9C37"/>
			<stop  offset="0.8504" style="stop-color:#CB9A2D"/>
			<stop  offset="0.902" style="stop-color:#B78B2C"/>
			<stop  offset="0.9908" style="stop-color:#98732B"/>
		</linearGradient>
		<path fill-rule="evenodd" clip-rule="evenodd" fill="url(#SVGID_57_)" d="M2576.254,775.611c0.12-4.249,3.899-8.132,7.812-8.041
			c3.854,0.146,6.883,3.792,6.815,8.197c-0.074,4.511-3.575,8.146-7.767,7.926C2579.351,783.524,2576.112,779.695,2576.254,775.611z
			"/>
		<linearGradient id="SVGID_58_" gradientUnits="userSpaceOnUse" x1="2594.1636" y1="775.6626" x2="2608.832" y2="775.6626">
			<stop  offset="0.2151" style="stop-color:#CB9A2D"/>
			<stop  offset="0.2258" style="stop-color:#CA9B32"/>
			<stop  offset="0.2943" style="stop-color:#C89F49"/>
			<stop  offset="0.3668" style="stop-color:#C6A25B"/>
			<stop  offset="0.4454" style="stop-color:#C4A465"/>
			<stop  offset="0.5413" style="stop-color:#C4A568"/>
			<stop  offset="0.6336" style="stop-color:#C6A25B"/>
			<stop  offset="0.8055" style="stop-color:#CA9C37"/>
			<stop  offset="0.8504" style="stop-color:#CB9A2D"/>
			<stop  offset="0.902" style="stop-color:#B78B2C"/>
			<stop  offset="0.9908" style="stop-color:#98732B"/>
		</linearGradient>
		<path fill-rule="evenodd" clip-rule="evenodd" fill="url(#SVGID_58_)" d="M2608.83,775.873c-0.149,4.236-3.463,7.876-7.19,7.82
			c-4.25-0.007-7.564-3.601-7.474-8.237c0.074-4.168,4.056-8.082,7.962-7.811C2606.034,767.963,2608.913,771.474,2608.83,775.873z"
			/>
		<linearGradient id="SVGID_59_" gradientUnits="userSpaceOnUse" x1="2150.8003" y1="772.8198" x2="2165.4976" y2="772.8198">
			<stop  offset="0.2151" style="stop-color:#CB9A2D"/>
			<stop  offset="0.2258" style="stop-color:#CA9B32"/>
			<stop  offset="0.2943" style="stop-color:#C89F49"/>
			<stop  offset="0.3668" style="stop-color:#C6A25B"/>
			<stop  offset="0.4454" style="stop-color:#C4A465"/>
			<stop  offset="0.5413" style="stop-color:#C4A568"/>
			<stop  offset="0.6336" style="stop-color:#C6A25B"/>
			<stop  offset="0.8055" style="stop-color:#CA9C37"/>
			<stop  offset="0.8504" style="stop-color:#CB9A2D"/>
			<stop  offset="0.902" style="stop-color:#B78B2C"/>
			<stop  offset="0.9908" style="stop-color:#98732B"/>
		</linearGradient>
		<path fill-rule="evenodd" clip-rule="evenodd" fill="url(#SVGID_59_)" d="M2150.842,771.957c0.397-4.144,4.019-7.39,7.932-7.067
			c4.154,0.32,7.086,4.157,6.688,8.817c-0.33,3.981-4.101,7.322-7.895,7.051C2153.353,780.432,2150.414,776.54,2150.842,771.957z"/>
		<linearGradient id="SVGID_60_" gradientUnits="userSpaceOnUse" x1="3576.7998" y1="772.8735" x2="3591.4326" y2="772.8735">
			<stop  offset="0.2151" style="stop-color:#CB9A2D"/>
			<stop  offset="0.2258" style="stop-color:#CA9B32"/>
			<stop  offset="0.2943" style="stop-color:#C89F49"/>
			<stop  offset="0.3668" style="stop-color:#C6A25B"/>
			<stop  offset="0.4454" style="stop-color:#C4A465"/>
			<stop  offset="0.5413" style="stop-color:#C4A568"/>
			<stop  offset="0.6336" style="stop-color:#C6A25B"/>
			<stop  offset="0.8055" style="stop-color:#CA9C37"/>
			<stop  offset="0.8504" style="stop-color:#CB9A2D"/>
			<stop  offset="0.902" style="stop-color:#B78B2C"/>
			<stop  offset="0.9908" style="stop-color:#98732B"/>
		</linearGradient>
		<path fill-rule="evenodd" clip-rule="evenodd" fill="url(#SVGID_60_)" d="M3591.432,772.701c0.075,4.33-3.544,8.225-7.593,8.157
			c-3.893-0.087-7.004-3.587-7.039-7.914c0-4.546,3.408-8.141,7.607-8.055C3588.33,764.971,3591.386,768.314,3591.432,772.701z"/>
		<linearGradient id="SVGID_61_" gradientUnits="userSpaceOnUse" x1="2817.2847" y1="754.7056" x2="2831.9922" y2="754.7056">
			<stop  offset="0.2151" style="stop-color:#CB9A2D"/>
			<stop  offset="0.2258" style="stop-color:#CA9B32"/>
			<stop  offset="0.2943" style="stop-color:#C89F49"/>
			<stop  offset="0.3668" style="stop-color:#C6A25B"/>
			<stop  offset="0.4454" style="stop-color:#C4A465"/>
			<stop  offset="0.5413" style="stop-color:#C4A568"/>
			<stop  offset="0.6336" style="stop-color:#C6A25B"/>
			<stop  offset="0.8055" style="stop-color:#CA9C37"/>
			<stop  offset="0.8504" style="stop-color:#CB9A2D"/>
			<stop  offset="0.902" style="stop-color:#B78B2C"/>
			<stop  offset="0.9908" style="stop-color:#98732B"/>
		</linearGradient>
		<path fill-rule="evenodd" clip-rule="evenodd" fill="url(#SVGID_61_)" d="M2831.992,754.842c0,4.218-3.164,7.72-7.145,7.883
			c-4.154,0.178-7.4-3.564-7.559-8.063c-0.172-4.905,4.731-8.065,7.88-7.979C2829.016,746.766,2831.992,750.427,2831.992,754.842z"
			/>
		<linearGradient id="SVGID_62_" gradientUnits="userSpaceOnUse" x1="2627.46" y1="772.8325" x2="2642.0811" y2="772.8325">
			<stop  offset="0.2151" style="stop-color:#CB9A2D"/>
			<stop  offset="0.2258" style="stop-color:#CA9B32"/>
			<stop  offset="0.2943" style="stop-color:#C89F49"/>
			<stop  offset="0.3668" style="stop-color:#C6A25B"/>
			<stop  offset="0.4454" style="stop-color:#C4A465"/>
			<stop  offset="0.5413" style="stop-color:#C4A568"/>
			<stop  offset="0.6336" style="stop-color:#C6A25B"/>
			<stop  offset="0.8055" style="stop-color:#CA9C37"/>
			<stop  offset="0.8504" style="stop-color:#CB9A2D"/>
			<stop  offset="0.902" style="stop-color:#B78B2C"/>
			<stop  offset="0.9908" style="stop-color:#98732B"/>
		</linearGradient>
		<path fill-rule="evenodd" clip-rule="evenodd" fill="url(#SVGID_62_)" d="M2642.081,772.878c0,4.33-3.711,8.127-7.737,7.897
			c-3.958-0.176-6.95-3.664-6.883-7.991c0.023-4.566,3.509-8.129,7.73-7.896C2639.12,765.062,2642.081,768.475,2642.081,772.878z"/>
		<linearGradient id="SVGID_63_" gradientUnits="userSpaceOnUse" x1="2414.7134" y1="743.8257" x2="2429.3979" y2="743.8257">
			<stop  offset="0.2151" style="stop-color:#CB9A2D"/>
			<stop  offset="0.2258" style="stop-color:#CA9B32"/>
			<stop  offset="0.2943" style="stop-color:#C89F49"/>
			<stop  offset="0.3668" style="stop-color:#C6A25B"/>
			<stop  offset="0.4454" style="stop-color:#C4A465"/>
			<stop  offset="0.5413" style="stop-color:#C4A568"/>
			<stop  offset="0.6336" style="stop-color:#C6A25B"/>
			<stop  offset="0.8055" style="stop-color:#CA9C37"/>
			<stop  offset="0.8504" style="stop-color:#CB9A2D"/>
			<stop  offset="0.902" style="stop-color:#B78B2C"/>
			<stop  offset="0.9908" style="stop-color:#98732B"/>
		</linearGradient>
		<path fill-rule="evenodd" clip-rule="evenodd" fill="url(#SVGID_63_)" d="M2414.743,743.033c0.324-4.059,4.02-7.311,7.88-7.051
			c4.154,0.307,7.131,4.155,6.741,8.712c-0.344,4.157-3.816,7.247-7.774,6.974C2417.293,751.333,2414.384,747.674,2414.743,743.033z
			"/>
		<linearGradient id="SVGID_64_" gradientUnits="userSpaceOnUse" x1="3317.7002" y1="754.6929" x2="3332.3608" y2="754.6929">
			<stop  offset="0.2151" style="stop-color:#CB9A2D"/>
			<stop  offset="0.2258" style="stop-color:#CA9B32"/>
			<stop  offset="0.2943" style="stop-color:#C89F49"/>
			<stop  offset="0.3668" style="stop-color:#C6A25B"/>
			<stop  offset="0.4454" style="stop-color:#C4A465"/>
			<stop  offset="0.5413" style="stop-color:#C4A568"/>
			<stop  offset="0.6336" style="stop-color:#C6A25B"/>
			<stop  offset="0.8055" style="stop-color:#CA9C37"/>
			<stop  offset="0.8504" style="stop-color:#CB9A2D"/>
			<stop  offset="0.902" style="stop-color:#B78B2C"/>
			<stop  offset="0.9908" style="stop-color:#98732B"/>
		</linearGradient>
		<path fill-rule="evenodd" clip-rule="evenodd" fill="url(#SVGID_64_)" d="M3332.358,754.908c-0.136,4.171-3.458,7.817-7.198,7.817
			c-4.245,0-7.521-3.646-7.459-8.288c0.06-4.01,4.191-8.07,8.007-7.76C3329.545,746.937,3332.457,750.509,3332.358,754.908z"/>
		<linearGradient id="SVGID_65_" gradientUnits="userSpaceOnUse" x1="3335.2212" y1="754.7114" x2="3350.5933" y2="754.7114">
			<stop  offset="0.2151" style="stop-color:#CB9A2D"/>
			<stop  offset="0.2258" style="stop-color:#CA9B32"/>
			<stop  offset="0.2943" style="stop-color:#C89F49"/>
			<stop  offset="0.3668" style="stop-color:#C6A25B"/>
			<stop  offset="0.4454" style="stop-color:#C4A465"/>
			<stop  offset="0.5413" style="stop-color:#C4A568"/>
			<stop  offset="0.6336" style="stop-color:#C6A25B"/>
			<stop  offset="0.8055" style="stop-color:#CA9C37"/>
			<stop  offset="0.8504" style="stop-color:#CB9A2D"/>
			<stop  offset="0.902" style="stop-color:#B78B2C"/>
			<stop  offset="0.9908" style="stop-color:#98732B"/>
		</linearGradient>
		<path fill-rule="evenodd" clip-rule="evenodd" fill="url(#SVGID_65_)" d="M3343.018,762.725c-3.866,0.012-7.879-4.164-7.795-8.228
			c0.127-3.656,3.907-7.542,7.669-7.794c3.462-0.188,7.491,3.72,7.692,7.551C3350.811,758.147,3346.759,762.651,3343.018,762.725z"
			/>
		<linearGradient id="SVGID_66_" gradientUnits="userSpaceOnUse" x1="3631.7256" y1="754.7046" x2="3646.5928" y2="754.7046">
			<stop  offset="0.2151" style="stop-color:#CB9A2D"/>
			<stop  offset="0.2258" style="stop-color:#CA9B32"/>
			<stop  offset="0.2943" style="stop-color:#C89F49"/>
			<stop  offset="0.3668" style="stop-color:#C6A25B"/>
			<stop  offset="0.4454" style="stop-color:#C4A465"/>
			<stop  offset="0.5413" style="stop-color:#C4A568"/>
			<stop  offset="0.6336" style="stop-color:#C6A25B"/>
			<stop  offset="0.8055" style="stop-color:#CA9C37"/>
			<stop  offset="0.8504" style="stop-color:#CB9A2D"/>
			<stop  offset="0.902" style="stop-color:#B78B2C"/>
			<stop  offset="0.9908" style="stop-color:#98732B"/>
		</linearGradient>
		<path fill-rule="evenodd" clip-rule="evenodd" fill="url(#SVGID_66_)" d="M3646.591,754.412c0.092,4.592-3.148,8.234-7.46,8.313
			c-3.619,0.019-7.249-3.745-7.399-7.792c-0.171-4.186,3.523-8.232,7.601-8.248C3643.36,746.617,3646.493,749.936,3646.591,754.412z
			"/>
		<linearGradient id="SVGID_67_" gradientUnits="userSpaceOnUse" x1="2261.2896" y1="860.3071" x2="2276.6196" y2="860.3071">
			<stop  offset="0.2151" style="stop-color:#CB9A2D"/>
			<stop  offset="0.2258" style="stop-color:#CA9B32"/>
			<stop  offset="0.2943" style="stop-color:#C89F49"/>
			<stop  offset="0.3668" style="stop-color:#C6A25B"/>
			<stop  offset="0.4454" style="stop-color:#C4A465"/>
			<stop  offset="0.5413" style="stop-color:#C4A568"/>
			<stop  offset="0.6336" style="stop-color:#C6A25B"/>
			<stop  offset="0.8055" style="stop-color:#CA9C37"/>
			<stop  offset="0.8504" style="stop-color:#CB9A2D"/>
			<stop  offset="0.902" style="stop-color:#B78B2C"/>
			<stop  offset="0.9908" style="stop-color:#98732B"/>
		</linearGradient>
		<path fill-rule="evenodd" clip-rule="evenodd" fill="url(#SVGID_67_)" d="M2268.955,868.122c-3.89-0.087-7.549-3.651-7.662-7.477
			c-0.134-3.836,3.982-8.07,7.934-8.152c3.965-0.07,7.602,4.075,7.384,8.4C2276.416,865.123,2273.103,868.21,2268.955,868.122z"/>
		<linearGradient id="SVGID_68_" gradientUnits="userSpaceOnUse" x1="2422.6216" y1="764.4341" x2="2437.2593" y2="764.4341">
			<stop  offset="0.2151" style="stop-color:#CB9A2D"/>
			<stop  offset="0.2258" style="stop-color:#CA9B32"/>
			<stop  offset="0.2943" style="stop-color:#C89F49"/>
			<stop  offset="0.3668" style="stop-color:#C6A25B"/>
			<stop  offset="0.4454" style="stop-color:#C4A465"/>
			<stop  offset="0.5413" style="stop-color:#C4A568"/>
			<stop  offset="0.6336" style="stop-color:#C6A25B"/>
			<stop  offset="0.8055" style="stop-color:#CA9C37"/>
			<stop  offset="0.8504" style="stop-color:#CB9A2D"/>
			<stop  offset="0.902" style="stop-color:#B78B2C"/>
			<stop  offset="0.9908" style="stop-color:#98732B"/>
		</linearGradient>
		<path fill-rule="evenodd" clip-rule="evenodd" fill="url(#SVGID_68_)" d="M2437.258,764.309c0.068,4.999-2.758,8.134-7.28,7.973
			c-4.056-0.149-7.227-3.408-7.355-7.634c-0.088-4.082,3.652-7.979,7.745-8.065C2434.5,756.5,2437.229,759.57,2437.258,764.309z"/>
		<linearGradient id="SVGID_69_" gradientUnits="userSpaceOnUse" x1="2279.5156" y1="860.312" x2="2294.1514" y2="860.312">
			<stop  offset="0.2151" style="stop-color:#CB9A2D"/>
			<stop  offset="0.2258" style="stop-color:#CA9B32"/>
			<stop  offset="0.2943" style="stop-color:#C89F49"/>
			<stop  offset="0.3668" style="stop-color:#C6A25B"/>
			<stop  offset="0.4454" style="stop-color:#C4A465"/>
			<stop  offset="0.5413" style="stop-color:#C4A568"/>
			<stop  offset="0.6336" style="stop-color:#C6A25B"/>
			<stop  offset="0.8055" style="stop-color:#CA9C37"/>
			<stop  offset="0.8504" style="stop-color:#CB9A2D"/>
			<stop  offset="0.902" style="stop-color:#B78B2C"/>
			<stop  offset="0.9908" style="stop-color:#98732B"/>
		</linearGradient>
		<path fill-rule="evenodd" clip-rule="evenodd" fill="url(#SVGID_69_)" d="M2294.148,860.626c-0.1,4.976-2.993,7.753-7.73,7.495
			c-4.177-0.18-7.024-3.483-6.898-7.809c0.136-4.243,3.989-8.005,7.947-7.82C2291.486,852.748,2294.253,856.07,2294.148,860.626z"/>
		<linearGradient id="SVGID_70_" gradientUnits="userSpaceOnUse" x1="2504.8784" y1="772.8208" x2="2519.5127" y2="772.8208">
			<stop  offset="0.2151" style="stop-color:#CB9A2D"/>
			<stop  offset="0.2258" style="stop-color:#CA9B32"/>
			<stop  offset="0.2943" style="stop-color:#C89F49"/>
			<stop  offset="0.3668" style="stop-color:#C6A25B"/>
			<stop  offset="0.4454" style="stop-color:#C4A465"/>
			<stop  offset="0.5413" style="stop-color:#C4A568"/>
			<stop  offset="0.6336" style="stop-color:#C6A25B"/>
			<stop  offset="0.8055" style="stop-color:#CA9C37"/>
			<stop  offset="0.8504" style="stop-color:#CB9A2D"/>
			<stop  offset="0.902" style="stop-color:#B78B2C"/>
			<stop  offset="0.9908" style="stop-color:#98732B"/>
		</linearGradient>
		<path fill-rule="evenodd" clip-rule="evenodd" fill="url(#SVGID_70_)" d="M2519.513,772.803c0.031,4.143-3.845,8.055-7.834,7.954
			c-4.063-0.157-6.837-3.393-6.799-7.973c0.007-4.316,2.997-7.727,6.912-7.896C2516.027,764.716,2519.49,768.227,2519.513,772.803z"
			/>
		<linearGradient id="SVGID_71_" gradientUnits="userSpaceOnUse" x1="2405.0854" y1="764.4282" x2="2419.728" y2="764.4282">
			<stop  offset="0.2151" style="stop-color:#CB9A2D"/>
			<stop  offset="0.2258" style="stop-color:#CA9B32"/>
			<stop  offset="0.2943" style="stop-color:#C89F49"/>
			<stop  offset="0.3668" style="stop-color:#C6A25B"/>
			<stop  offset="0.4454" style="stop-color:#C4A465"/>
			<stop  offset="0.5413" style="stop-color:#C4A568"/>
			<stop  offset="0.6336" style="stop-color:#C6A25B"/>
			<stop  offset="0.8055" style="stop-color:#CA9C37"/>
			<stop  offset="0.8504" style="stop-color:#CB9A2D"/>
			<stop  offset="0.902" style="stop-color:#B78B2C"/>
			<stop  offset="0.9908" style="stop-color:#98732B"/>
		</linearGradient>
		<path fill-rule="evenodd" clip-rule="evenodd" fill="url(#SVGID_71_)" d="M2419.723,764.648c-0.12,4.244-3.352,7.573-7.341,7.634
			c-4.536,0.012-7.481-3.242-7.287-8.057c0.217-4.744,3.455-7.896,7.865-7.636C2416.956,756.839,2419.872,760.323,2419.723,764.648z
			"/>
	</g>
</g>
</svg>
